<svg xmlns="http://www.w3.org/2000/svg" xmlns:xlink="http://www.w3.org/1999/xlink" contentStyleType="text/css" data-diagram-type="DESCRIPTION" height="800px" preserveAspectRatio="none" style="width:583px;height:800px;background:#FFFFFF;" version="1.1" viewBox="0 0 583 800" width="583px" zoomAndPan="magnify"><defs/><g><!--cluster Account_Management--><g class="cluster" data-entity="Account_Management" data-source-line="10" data-uid="ent0007" id="cluster_Account_Management"><path d="M236.08,6.602 L393.7674,6.602 A3.75,3.75 0 0 1 396.2674,9.102 L403.2674,31.6699 L424.38,31.6699 A2.5,2.5 0 0 1 426.88,34.1699 L426.88,371.102 A2.5,2.5 0 0 1 424.38,373.602 L236.08,373.602 A2.5,2.5 0 0 1 233.58,371.102 L233.58,9.102 A2.5,2.5 0 0 1 236.08,6.602" fill="none" style="stroke:#000000;stroke-width:1.5;"/><line style="stroke:#000000;stroke-width:1.5;" x1="233.58" x2="403.2674" y1="31.6699" y2="31.6699"/><text fill="#000000" font-family="'Kanit'" font-size="14" font-weight="bold" lengthAdjust="spacing" textLength="156.6874" x="237.58" y="23.5679">Account_Management</text></g><!--cluster Basic_Usage--><g class="cluster" data-entity="Basic_Usage" data-source-line="18" data-uid="ent0013" id="cluster_Basic_Usage"><path d="M244.39,397.602 L330.5657,397.602 A3.75,3.75 0 0 1 333.0657,400.102 L340.0657,422.6699 L416.07,422.6699 A2.5,2.5 0 0 1 418.57,425.1699 L418.57,753.102 A2.5,2.5 0 0 1 416.07,755.602 L244.39,755.602 A2.5,2.5 0 0 1 241.89,753.102 L241.89,400.102 A2.5,2.5 0 0 1 244.39,397.602" fill="none" style="stroke:#000000;stroke-width:1.5;"/><line style="stroke:#000000;stroke-width:1.5;" x1="241.89" x2="340.0657" y1="422.6699" y2="422.6699"/><text fill="#000000" font-family="'Kanit'" font-size="14" font-weight="bold" lengthAdjust="spacing" textLength="85.1757" x="245.89" y="414.5679">Basic_Usage</text></g><!--entity A5--><g class="entity" data-entity="A5" data-source-line="11" data-uid="ent0008" id="entity_A5"><ellipse cx="330.2333" cy="62.5986" fill="#F1F1F1" rx="77.0333" ry="17.8067" style="stroke:#181818;stroke-width:0.5;"/><text fill="#000000" font-family="'Kanit'" font-size="14" lengthAdjust="spacing" textLength="113.2876" x="273.5895" y="68.6326">&#3629;&#3609;&#3640;&#3617;&#3633;&#3605;&#3636;&#3585;&#3634;&#3619;&#3621;&#3591;&#3607;&#3632;&#3648;&#3610;&#3637;&#3618;&#3609;</text></g><!--entity A7--><g class="entity" data-entity="A7" data-source-line="12" data-uid="ent0009" id="entity_A7"><ellipse cx="330.2334" cy="341.605" fill="#F1F1F1" rx="68.6334" ry="16.4831" style="stroke:#181818;stroke-width:0.5;"/><text fill="#000000" font-family="'Kanit'" font-size="14" lengthAdjust="spacing" textLength="92.8196" x="283.8236" y="347.639">&#3649;&#3585;&#3657;&#3652;&#3586;&#3586;&#3657;&#3629;&#3617;&#3641;&#3621; &#3626;&#3611;&#3585;.</text></g><!--entity A8--><g class="entity" data-entity="A8" data-source-line="13" data-uid="ent0010" id="entity_A8"><ellipse cx="330.2282" cy="203.605" fill="#F1F1F1" rx="60.2782" ry="16.4831" style="stroke:#181818;stroke-width:0.5;"/><text fill="#000000" font-family="'Kanit'" font-size="14" lengthAdjust="spacing" textLength="81.0037" x="289.7264" y="209.639">&#3621;&#3610;&#3586;&#3657;&#3629;&#3617;&#3641;&#3621; &#3626;&#3611;&#3585;.</text></g><!--entity A9--><g class="entity" data-entity="A9" data-source-line="14" data-uid="ent0011" id="entity_A9"><ellipse cx="330.2272" cy="133.6014" fill="#F1F1F1" rx="80.6472" ry="18.5294" style="stroke:#181818;stroke-width:0.5;"/><text fill="#000000" font-family="'Kanit'" font-size="14" lengthAdjust="spacing" textLength="122.5835" x="268.9354" y="139.6354">&#3648;&#3614;&#3636;&#3656;&#3617; admin &#3619;&#3632;&#3604;&#3633;&#3610;&#3619;&#3629;&#3591;</text></g><!--entity A10--><g class="entity" data-entity="A10" data-source-line="15" data-uid="ent0012" id="entity_A10"><ellipse cx="330.2307" cy="272.6021" fill="#F1F1F1" rx="74.8507" ry="17.3701" style="stroke:#181818;stroke-width:0.5;"/><text fill="#000000" font-family="'Kanit'" font-size="14" lengthAdjust="spacing" textLength="107.5195" x="276.4709" y="278.6361">&#3605;&#3619;&#3623;&#3592;&#3626;&#3629;&#3610;&#3585;&#3634;&#3619;&#3626;&#3617;&#3633;&#3588;&#3619;</text></g><!--entity A1--><g class="entity" data-entity="A1" data-source-line="19" data-uid="ent0014" id="entity_A1"><ellipse cx="330.2316" cy="723.605" fill="#F1F1F1" rx="44.1916" ry="16.4831" style="stroke:#181818;stroke-width:0.5;"/><text fill="#000000" font-family="'Kanit'" font-size="14" lengthAdjust="spacing" textLength="58.2538" x="301.1048" y="729.639">&#3621;&#3591;&#3607;&#3632;&#3648;&#3610;&#3637;&#3618;&#3609;</text></g><!--entity A2--><g class="entity" data-entity="A2" data-source-line="20" data-uid="ent0015" id="entity_A2"><ellipse cx="330.2325" cy="519.605" fill="#F1F1F1" rx="41.1525" ry="16.4831" style="stroke:#181818;stroke-width:0.5;"/><text fill="#000000" font-family="'Kanit'" font-size="14" lengthAdjust="spacing" textLength="53.9558" x="303.2546" y="525.639">&#3648;&#3586;&#3657;&#3634;&#3626;&#3641;&#3656;&#3619;&#3632;&#3610;&#3610;</text></g><!--entity A3--><g class="entity" data-entity="A3" data-source-line="21" data-uid="ent0016" id="entity_A3"><ellipse cx="330.2307" cy="655.605" fill="#F1F1F1" rx="63.9707" ry="16.4831" style="stroke:#181818;stroke-width:0.5;"/><text fill="#000000" font-family="'Kanit'" font-size="14" lengthAdjust="spacing" textLength="86.2256" x="287.1179" y="661.639">&#3648;&#3586;&#3657;&#3634;&#3626;&#3641;&#3656;&#3619;&#3632;&#3610;&#3610; &#3626;&#3611;&#3585;.</text></g><!--entity A4--><g class="entity" data-entity="A4" data-source-line="22" data-uid="ent0017" id="entity_A4"><ellipse cx="330.2251" cy="451.605" fill="#F1F1F1" rx="55.6651" ry="16.4831" style="stroke:#181818;stroke-width:0.5;"/><text fill="#000000" font-family="'Kanit'" font-size="14" lengthAdjust="spacing" textLength="74.4797" x="292.9852" y="457.639">&#3629;&#3629;&#3585;&#3592;&#3634;&#3585;&#3619;&#3632;&#3610;&#3610;</text></g><!--entity A6--><g class="entity" data-entity="A6" data-source-line="23" data-uid="ent0018" id="entity_A6"><ellipse cx="330.232" cy="587.6004" fill="#F1F1F1" rx="72.342" ry="16.8684" style="stroke:#181818;stroke-width:0.5;"/><text fill="#000000" font-family="'Kanit'" font-size="14" lengthAdjust="spacing" textLength="100.7156" x="279.8742" y="593.6343">reset password</text></g><!--entity S--><g class="entity" data-entity="S" data-source-line="4" data-uid="ent0002" id="entity_S"><ellipse cx="524.96" cy="674.062" fill="#F1F1F1" rx="16" ry="16" style="stroke:#181818;stroke-width:0.5;"/><path d="M524.96,694.062 C528.96,694.062 531.96,694.062 535.96,690.062 C543.96,690.062 551.96,698.062 551.96,706.062 L551.96,710.062 C551.96,714.062 547.96,718.062 543.96,718.062 L505.96,718.062 C501.96,718.062 497.96,714.062 497.96,710.062 L497.96,706.062 C497.96,698.062 505.96,690.062 513.96,690.062 C517.96,694.062 520.96,694.062 524.96,694.062" fill="#F1F1F1" style="stroke:#181818;stroke-width:0.5;"/><text fill="#000000" font-family="'Kanit'" font-size="14" lengthAdjust="spacing" textLength="48.2998" x="500.8101" y="733.5279">&#3592;&#3611;.&#3626;&#3611;&#3585;.</text></g><!--entity A--><g class="entity" data-entity="A" data-source-line="5" data-uid="ent0003" id="entity_A"><ellipse cx="524.9628" cy="183.062" fill="#F1F1F1" rx="16" ry="16" style="stroke:#181818;stroke-width:0.5;"/><path d="M524.9628,203.062 C528.9628,203.062 531.9628,203.062 535.9628,199.062 C543.9628,199.062 551.9628,207.062 551.9628,215.062 L551.9628,219.062 C551.9628,223.062 547.9628,227.062 543.9628,227.062 L505.9628,227.062 C501.9628,227.062 497.9628,223.062 497.9628,219.062 L497.9628,215.062 C497.9628,207.062 505.9628,199.062 513.9628,199.062 C517.9628,203.062 520.9628,203.062 524.9628,203.062" fill="#F1F1F1" style="stroke:#181818;stroke-width:0.5;"/><text fill="#000000" font-family="'Kanit'" font-size="14" lengthAdjust="spacing" textLength="74.7457" x="487.59" y="242.5279">admin DDC</text></g><!--entity R--><g class="entity" data-entity="R" data-source-line="6" data-uid="ent0004" id="entity_R"><ellipse cx="67.2918" cy="510.062" fill="#F1F1F1" rx="16" ry="16" style="stroke:#181818;stroke-width:0.5;"/><path d="M67.2918,530.062 C71.2918,530.062 74.2918,530.062 78.2918,526.062 C86.2918,526.062 94.2918,534.062 94.2918,542.062 L94.2918,546.062 C94.2918,550.062 90.2918,554.062 86.2918,554.062 L48.2918,554.062 C44.2918,554.062 40.2918,550.062 40.2918,546.062 L40.2918,542.062 C40.2918,534.062 48.2918,526.062 56.2918,526.062 C60.2918,530.062 63.2918,530.062 67.2918,530.062" fill="#F1F1F1" style="stroke:#181818;stroke-width:0.5;"/><text fill="#000000" font-family="'Kanit'" font-size="14" lengthAdjust="spacing" textLength="122.5835" x="6" y="569.5279">&#3612;&#3641;&#3657;&#3611;&#3619;&#3632;&#3648;&#3617;&#3636;&#3609;[&#3629;&#3609;&#3634;&#3617;&#3633;&#3618;, &#3592;&#3636;&#3605;]</text></g><!--entity RO--><g class="entity" data-entity="RO" data-source-line="7" data-uid="ent0005" id="entity_RO"><ellipse cx="67.2888" cy="362.062" fill="#F1F1F1" rx="16" ry="16" style="stroke:#181818;stroke-width:0.5;"/><path d="M67.2888,382.062 C71.2888,382.062 74.2888,382.062 78.2888,378.062 C86.2888,378.062 94.2888,386.062 94.2888,394.062 L94.2888,398.062 C94.2888,402.062 90.2888,406.062 86.2888,406.062 L48.2888,406.062 C44.2888,406.062 40.2888,402.062 40.2888,398.062 L40.2888,394.062 C40.2888,386.062 48.2888,378.062 56.2888,378.062 C60.2888,382.062 63.2888,382.062 67.2888,382.062" fill="#F1F1F1" style="stroke:#181818;stroke-width:0.5;"/><text fill="#000000" font-family="'Kanit'" font-size="14" lengthAdjust="spacing" textLength="78.2177" x="28.18" y="421.5279">admin[&#3626;&#3588;&#3619;.]</text></g><!--entity P--><g class="entity" data-entity="P" data-source-line="8" data-uid="ent0006" id="entity_P"><ellipse cx="524.9658" cy="449.062" fill="#F1F1F1" rx="16" ry="16" style="stroke:#181818;stroke-width:0.5;"/><path d="M524.9658,469.062 C528.9658,469.062 531.9658,469.062 535.9658,465.062 C543.9658,465.062 551.9658,473.062 551.9658,481.062 L551.9658,485.062 C551.9658,489.062 547.9658,493.062 543.9658,493.062 L505.9658,493.062 C501.9658,493.062 497.9658,489.062 497.9658,485.062 L497.9658,481.062 C497.9658,473.062 505.9658,465.062 513.9658,465.062 C517.9658,469.062 520.9658,469.062 524.9658,469.062" fill="#F1F1F1" style="stroke:#181818;stroke-width:0.5;"/><text fill="#000000" font-family="'Kanit'" font-size="14" lengthAdjust="spacing" textLength="102.1716" x="473.88" y="508.5279">admin Province</text></g><!--reverse link A1 to S--><g class="link" data-entity-1="A1" data-entity-2="S" data-source-line="26" data-uid="lnk20" id="link_A1_S"><path d="M349.8067,743.4906 C370.9667,764.6106 407.73,793.692 443.88,778.602 C465.05,769.762 483.47,752.302 497.3,735.852" fill="none" id="A1-backto-S" style="stroke:#181818;stroke-width:1;"/><polygon fill="#181818" points="345.56,739.252,349.1042,748.441,349.0989,742.7842,354.7557,742.7788,345.56,739.252" style="stroke:#181818;stroke-width:1;"/></g><!--reverse link A2 to S--><g class="link" data-entity-1="A2" data-entity-2="S" data-source-line="27" data-uid="lnk22" id="link_A2_S"><path d="M377.2194,523.2023 C399.4994,526.8923 419.78,534.392 434.88,553.602 C448.93,571.482 430.31,636.652 442.88,655.602 C455.23,674.232 478.58,685.082 497.06,691.072" fill="none" id="A2-backto-S" style="stroke:#181818;stroke-width:1;"/><polygon fill="#181818" points="371.3,522.222,379.5255,527.6388,376.2328,523.039,380.8326,519.7463,371.3,522.222" style="stroke:#181818;stroke-width:1;"/></g><!--reverse link A3 to S--><g class="link" data-entity-1="A3" data-entity-2="S" data-source-line="28" data-uid="lnk24" id="link_A3_S"><path d="M394.2398,664.3981 C411.4498,669.3081 423.1,675.882 434.88,689.602 C448.97,706.012 426.38,723.622 442.88,737.602 C458.93,751.192 480.39,739.602 497.2,725.462" fill="none" id="A3-backto-S" style="stroke:#181818;stroke-width:1;"/><polygon fill="#181818" points="388.47,662.752,396.0273,669.0677,393.2781,664.1237,398.2221,661.3746,388.47,662.752" style="stroke:#181818;stroke-width:1;"/></g><!--reverse link A4 to S--><g class="link" data-entity-1="A4" data-entity-2="S" data-source-line="29" data-uid="lnk26" id="link_A4_S"><path d="M389.4743,457.9825 C408.5543,462.5625 422.6,469.712 434.88,485.602 C452.44,508.332 431.22,588.352 442.88,614.602 C454.57,640.932 478.5,663.742 497.35,678.752" fill="none" id="A4-backto-S" style="stroke:#181818;stroke-width:1;"/><polygon fill="#181818" points="383.64,456.582,391.4578,462.5722,388.5019,457.749,393.325,454.7932,383.64,456.582" style="stroke:#181818;stroke-width:1;"/></g><!--reverse link A6 to S--><g class="link" data-entity-1="A6" data-entity-2="S" data-source-line="30" data-uid="lnk28" id="link_A6_S"><path d="M399.8063,597.7662 C415.2863,602.7962 424.64,608.942 434.88,621.602 C445.42,634.632 430.48,685.322 442.88,696.602 C457.25,709.682 479.69,708.952 497.32,705.492" fill="none" id="A6-backto-S" style="stroke:#181818;stroke-width:1;"/><polygon fill="#181818" points="394.1,595.912,401.4233,602.4975,398.8553,597.4571,403.8956,594.889,394.1,595.912" style="stroke:#181818;stroke-width:1;"/></g><!--reverse link A7 to S--><g class="link" data-entity-1="A7" data-entity-2="S" data-source-line="31" data-uid="lnk30" id="link_A7_S"><path d="M365.4152,359.7709 C388.7052,373.3309 415.44,392.252 434.88,419.602 C441.96,429.562 489,582.512 511.72,657.192" fill="none" id="A7-backto-S" style="stroke:#181818;stroke-width:1;"/><polygon fill="#181818" points="360.23,356.752,365.9951,364.7372,364.551,359.2678,370.0204,357.8236,360.23,356.752" style="stroke:#181818;stroke-width:1;"/></g><!--reverse link A2 to A--><g class="link" data-entity-1="A2" data-entity-2="A" data-source-line="33" data-uid="lnk32" id="link_A2_A"><path d="M377.1532,516.2152 C399.5632,512.5952 419.98,505.082 434.88,485.602 C445.35,471.902 437.53,346.992 442.88,330.602 C452.81,300.152 472.26,269.992 489.62,247.042" fill="none" id="A2-backto-A" style="stroke:#181818;stroke-width:1;"/><polygon fill="#181818" points="371.23,517.172,380.7527,519.6856,376.166,516.3746,379.477,511.788,371.23,517.172" style="stroke:#181818;stroke-width:1;"/></g><!--reverse link A4 to A--><g class="link" data-entity-1="A4" data-entity-2="A" data-source-line="34" data-uid="lnk34" id="link_A4_A"><path d="M366.6363,434.9026 C390.9263,421.9726 418.38,403.082 434.88,373.602 C453.2,340.872 427.1,323.622 442.88,289.602 C452.88,268.042 470.89,248.722 487.4,234.152" fill="none" id="A4-backto-A" style="stroke:#181818;stroke-width:1;"/><polygon fill="#181818" points="361.34,437.722,371.1641,437.0239,365.7536,435.3725,367.405,429.9621,361.34,437.722" style="stroke:#181818;stroke-width:1;"/></g><!--reverse link A8 to A--><g class="link" data-entity-1="A8" data-entity-2="A" data-source-line="35" data-uid="lnk36" id="link_A8_A"><path d="M376.4498,189.2286 C395.8398,182.9686 413.79,177.012 434.88,169.602 C438.86,168.202 439.77,165.632 443.88,166.602 C458.85,170.132 474.22,176.912 487.44,183.902" fill="none" id="A8-backto-A" style="stroke:#181818;stroke-width:1;"/><polygon fill="#181818" points="370.74,191.072,380.5336,192.1134,375.4982,189.5358,378.0758,184.5004,370.74,191.072" style="stroke:#181818;stroke-width:1;"/></g><!--reverse link A6 to A--><g class="link" data-entity-1="A6" data-entity-2="A" data-source-line="36" data-uid="lnk38" id="link_A6_A"><path d="M397.8256,576.6966 C413.5756,571.6666 423.55,565.692 434.88,553.602 C434.88,553.602 490.07,338.622 513.57,247.082" fill="none" id="A6-backto-A" style="stroke:#181818;stroke-width:1;"/><polygon fill="#181818" points="392.11,578.522,401.9003,579.5943,396.873,577.0008,399.4665,571.9735,392.11,578.522" style="stroke:#181818;stroke-width:1;"/></g><!--reverse link A9 to A--><g class="link" data-entity-1="A9" data-entity-2="A" data-source-line="37" data-uid="lnk40" id="link_A9_A"><path d="M417.0203,133.1761 C428.2803,134.7761 433.58,136.542 443.88,140.602 C459.63,146.812 474.62,157.362 487.27,168.222" fill="none" id="A9-backto-A" style="stroke:#181818;stroke-width:1;"/><polygon fill="#181818" points="411.08,132.332,419.4278,137.5583,416.0303,133.0354,420.5532,129.6379,411.08,132.332" style="stroke:#181818;stroke-width:1;"/></g><!--reverse link A5 to A--><g class="link" data-entity-1="A5" data-entity-2="A" data-source-line="38" data-uid="lnk42" id="link_A5_A"><path d="M392.3616,76.8798 C408.8016,82.1698 420.51,87.652 434.88,97.602 C460.9,115.622 483.39,143.302 499.26,166.262" fill="none" id="A5-backto-A" style="stroke:#181818;stroke-width:1;"/><polygon fill="#181818" points="386.65,75.042,393.9922,81.6065,391.4097,76.5735,396.4426,73.991,386.65,75.042" style="stroke:#181818;stroke-width:1;"/></g><!--reverse link A7 to A--><g class="link" data-entity-1="A7" data-entity-2="A" data-source-line="39" data-uid="lnk44" id="link_A7_A"><path d="M397.1688,332.1108 C413.4888,327.1308 423.91,320.772 434.88,307.602 C451.81,287.262 427.64,270.232 442.88,248.602 C453.47,233.572 471.11,223.532 487.24,217.062" fill="none" id="A7-backto-A" style="stroke:#181818;stroke-width:1;"/><polygon fill="#181818" points="391.43,333.862,401.2056,335.0611,396.2123,332.4027,398.8707,327.4094,391.43,333.862" style="stroke:#181818;stroke-width:1;"/></g><!--reverse link A10 to A--><g class="link" data-entity-1="A10" data-entity-2="A" data-source-line="40" data-uid="lnk46" id="link_A10_A"><path d="M398.2932,260.7579 C413.8632,255.5779 423.65,249.592 434.88,237.602 C444.31,227.532 431.99,216.072 442.88,207.602 C455.21,198.002 472.09,196.542 487.26,197.962" fill="none" id="A10-backto-A" style="stroke:#181818;stroke-width:1;"/><polygon fill="#181818" points="392.6,262.652,402.4025,263.6063,397.3443,261.0736,399.8771,256.0154,392.6,262.652" style="stroke:#181818;stroke-width:1;"/></g><!--link RO to A2--><g class="link" data-entity-1="RO" data-entity-2="A2" data-source-line="42" data-uid="lnk47" id="link_RO_A2"><path d="M106.8,413.942 C137.72,435.722 182.87,465.412 225.58,485.602 C248.01,496.202 268.8625,503.2078 289.5025,509.1278" fill="none" id="RO-to-A2" style="stroke:#181818;stroke-width:1;"/><polygon fill="#181818" points="295.27,510.782,287.7216,504.4557,290.4638,509.4035,285.516,512.1456,295.27,510.782" style="stroke:#181818;stroke-width:1;"/></g><!--link RO to A4--><g class="link" data-entity-1="RO" data-entity-2="A4" data-source-line="43" data-uid="lnk48" id="link_RO_A4"><path d="M106.83,388.832 C137.27,391.972 180.63,397.732 217.58,407.602 C245.97,415.182 271.4628,425.3248 293.5728,435.1048" fill="none" id="RO-to-A4" style="stroke:#181818;stroke-width:1;"/><polygon fill="#181818" points="299.06,437.532,292.4474,430.2331,294.4874,435.5094,289.2112,437.5494,299.06,437.532" style="stroke:#181818;stroke-width:1;"/></g><!--link RO to A6--><g class="link" data-entity-1="RO" data-entity-2="A6" data-source-line="44" data-uid="lnk49" id="link_RO_A6"><path d="M95.12,425.802 C120.22,463.252 154.45,513.892 158.58,517.602 C191.93,547.562 234.0635,564.0698 270.6335,574.3398" fill="none" id="RO-to-A6" style="stroke:#181818;stroke-width:1;"/><polygon fill="#181818" points="276.41,575.962,268.8267,569.6776,271.5962,574.6101,266.6637,577.3797,276.41,575.962" style="stroke:#181818;stroke-width:1;"/></g><!--link RO to A5--><g class="link" data-entity-1="RO" data-entity-2="A5" data-source-line="45" data-uid="lnk50" id="link_RO_A5"><path d="M79.81,345.302 C99.54,283.322 145.62,164.722 225.58,97.602 C238.39,86.852 248.9311,81.2388 264.7511,76.0288" fill="none" id="RO-to-A5" style="stroke:#181818;stroke-width:1;"/><polygon fill="#181818" points="270.45,74.152,260.6504,73.1679,265.7009,75.716,263.1529,80.7665,270.45,74.152" style="stroke:#181818;stroke-width:1;"/></g><!--link RO to A10--><g class="link" data-entity-1="RO" data-entity-2="A10" data-source-line="46" data-uid="lnk51" id="link_RO_A10"><path d="M106.72,364.722 C138.16,348.092 184.05,324.822 225.58,307.602 C244.27,299.852 259.6458,294.3527 277.8858,288.4027" fill="none" id="RO-to-A10" style="stroke:#181818;stroke-width:1;"/><polygon fill="#181818" points="283.59,286.542,273.7932,285.5303,278.8365,288.0926,276.2742,293.1359,283.59,286.542" style="stroke:#181818;stroke-width:1;"/></g><!--link R to A2--><g class="link" data-entity-1="R" data-entity-2="A2" data-source-line="48" data-uid="lnk52" id="link_R_A2"><path d="M128.81,530.352 C178.04,527.712 240.1487,524.3841 282.9287,522.0841" fill="none" id="R-to-A2" style="stroke:#181818;stroke-width:1;"/><polygon fill="#181818" points="288.92,521.762,279.7182,518.2509,283.9272,522.0304,280.1477,526.2394,288.92,521.762" style="stroke:#181818;stroke-width:1;"/></g><!--link R to A4--><g class="link" data-entity-1="R" data-entity-2="A4" data-source-line="49" data-uid="lnk53" id="link_R_A4"><path d="M128.66,495.892 C138.41,490.872 148.59,486.212 158.58,482.602 C196.95,468.732 236.557,461.6015 270.947,457.2715" fill="none" id="R-to-A4" style="stroke:#181818;stroke-width:1;"/><polygon fill="#181818" points="276.9,456.522,267.4708,453.6776,271.9392,457.1466,268.4702,461.6149,276.9,456.522" style="stroke:#181818;stroke-width:1;"/></g><!--link R to A6--><g class="link" data-entity-1="R" data-entity-2="A6" data-source-line="50" data-uid="lnk54" id="link_R_A6"><path d="M118.16,574.132 C130.66,582.132 144.53,589.362 158.58,593.602 C195.9,604.872 233.9622,603.7716 267.9322,599.2616" fill="none" id="R-to-A6" style="stroke:#181818;stroke-width:1;"/><polygon fill="#181818" points="273.88,598.472,264.4318,595.6913,268.9235,599.13,265.4847,603.6217,273.88,598.472" style="stroke:#181818;stroke-width:1;"/></g><!--reverse link A2 to P--><g class="link" data-entity-1="A2" data-entity-2="P" data-source-line="53" data-uid="lnk56" id="link_A2_P"><path d="M371.9591,509.6701 C402.0091,502.3401 439.91,493.102 473.73,484.852" fill="none" id="A2-backto-P" style="stroke:#181818;stroke-width:1;"/><polygon fill="#181818" points="366.13,511.092,375.8215,512.8452,370.9876,509.9071,373.9257,505.0731,366.13,511.092" style="stroke:#181818;stroke-width:1;"/></g><!--reverse link A4 to P--><g class="link" data-entity-1="A4" data-entity-2="P" data-source-line="54" data-uid="lnk58" id="link_A4_P"><path d="M389.0945,457.9036 C417.1945,460.9736 445.78,464.082 473.63,467.112" fill="none" id="A4-backto-P" style="stroke:#181818;stroke-width:1;"/><polygon fill="#181818" points="383.13,457.252,391.6423,462.2058,388.1004,457.795,392.5112,454.2531,383.13,457.252" style="stroke:#181818;stroke-width:1;"/></g><!--reverse link A6 to P--><g class="link" data-entity-1="A6" data-entity-2="P" data-source-line="55" data-uid="lnk60" id="link_A6_P"><path d="M388.0873,573.7361 C405.4373,568.4261 418.76,562.992 434.88,553.602 C453.66,542.662 471.89,527.242 486.91,512.782" fill="none" id="A6-backto-P" style="stroke:#181818;stroke-width:1;"/><polygon fill="#181818" points="382.35,575.492,392.1266,576.683,387.1311,574.0287,389.7854,569.0332,382.35,575.492" style="stroke:#181818;stroke-width:1;"/></g><!--reverse link A7 to P--><g class="link" data-entity-1="A7" data-entity-2="P" data-source-line="56" data-uid="lnk62" id="link_A7_P"><path d="M359.4419,360.7753 C388.7719,380.7153 435.08,412.182 473.57,438.342" fill="none" id="A7-backto-P" style="stroke:#181818;stroke-width:1;"/><polygon fill="#181818" points="354.48,357.402,359.674,365.7699,358.6149,360.2131,364.1718,359.1541,354.48,357.402" style="stroke:#181818;stroke-width:1;"/></g><!--reverse link A10 to P--><g class="link" data-entity-1="A10" data-entity-2="P" data-source-line="57" data-uid="lnk64" id="link_A10_P"><path d="M394.6792,285.6073 C410.8292,290.8273 421.81,296.582 434.88,307.602 C473.82,340.452 498.44,394.802 511.7,432.082" fill="none" id="A10-backto-P" style="stroke:#181818;stroke-width:1;"/><polygon fill="#181818" points="388.97,283.762,396.3036,290.3361,393.7277,285.2998,398.764,282.7238,388.97,283.762" style="stroke:#181818;stroke-width:1;"/></g><!--link A1 to A5--><g class="link" data-entity-1="A1" data-entity-2="A5" data-source-line="59" data-uid="lnk65" id="link_A1_A5"><path d="M286.98,719.412 C265.72,715.162 241.35,706.632 225.58,689.602 C169.84,629.372 191.97,591.592 182.27,510.102 C171.39,418.572 167.71,169.342 225.58,97.602 C235.45,85.372 244.0679,79.3771 258.9279,74.1671" fill="none" id="A1-to-A5" style="stroke:#181818;stroke-width:1;stroke-dasharray:7,7;"/><polygon fill="#181818" points="264.59,72.182,254.7734,71.385,259.8716,73.8363,257.4203,78.9344,264.59,72.182" style="stroke:#181818;stroke-width:1;"/><text fill="#000000" font-family="'Kanit'" font-size="13" lengthAdjust="spacing" textLength="57.5771" x="159.58" y="505.999">&#171;include&#187;</text></g><!--SRC=[xLPTQnD157tVNp7uf623-Kv3gKIxleXssU9JaJ9cf-tQP3ViRXgb2AOMMi477reaIL7Q4WgLWcqLP__D_1HdxkpkRDAqLdnKMCYTZtlkkNVct4c3B0SeS95dhwm6oB8zKWzirz7yDTjfOGyt4Qu7hhSGl6uGX3l4TviajMYHPTnk18zS9tYAcmJTUemTExYbLHdTONIGOVI4_p3QpLGHzj42qghOQjeEcfjx23CriNMVqP25xs7d4QFVMFYMqGD6lpFQMsJqbFymUWvJPumUtaM0pbVtdWE86Q4kGhWj3fA95kRZU8RdhjjEdS2qeMajN5_3AmJLwdMtxGHBJx33XqtY16X3G-Xs79N6KVSWO1TuS8v3HhSP_HIJxJFwWpFZBdSWgo9WX5tXmHCBEQTDyOaaJm4ov1X8bKUwbMNe8G3-TdT51k7XFmjo8Q_90PBfHdMaky2z3qEEj2qTfsMOFPW-XcAUm7e_bU59dBcef_JBtjFUgD8zmBvTNthc2tiZ8NvTLR89OPdREKG9WRdaoptwSc_kHdilrIIV7DufvB83djtB-0MnqIC-2L0B-tx7zIovK18vBg2fTcjgLb1Ep9moyyeiABEapBAcrPHVJMrEp8eoIygSLcPHcMLbyYFGp7aqPRaTHuAdHuMHKMbaL1mP0Su8p0XA6aJJ39MAeL8n57z3CJNIJ6jPb16XKHNDp73vDTeMcPtbY0xfjFYzqRJ6Fzv_z7NSQ8kCOmbnjVo4U8SGhASKEQA58n32iU0KRigOeBreCrnbNUfDwF42Ub4VlWb9GY_emKpI9VHSqiDwma_qi2z2uk47Hh-2riyWtaS8AIMkvoSrlZ-FNPZOFw-CAjljPFIH_g2NhghoFc0dtMyYrAQaEDvqzBBi9I_vtKL_XrI9cWyNa9wDZLniv6EZ80sUDuXQJ9KIgvnO5T2uNDNq4igqMncn0UH8NWN4iNmkHxLI6L-fn2lZ4bOhXN5n_zTsf6sJj5mlyAMovx2_-iB5ddKVJjgCjBaBRxkyCbj0J-fDtH6L9cBXErWPmBiw0COxy55G5zna0J24n-um_WFHIqb72ipCgV380vxe2Xf3w3Jo-QNWaH2xB5mpVsFSoUokHvTjGJ0v0Z83TQoY2XUoD0XE4_xEYDue4f3knVJJRgf7dECcBwoftbrJlTpykDBFfnWQwL5gaFi5]--></g></svg>