<svg xmlns="http://www.w3.org/2000/svg" xmlns:xlink="http://www.w3.org/1999/xlink" contentStyleType="text/css" data-diagram-type="DESCRIPTION" height="573px" preserveAspectRatio="none" style="width:604px;height:573px;background:#FFFFFF;" version="1.1" viewBox="0 0 604 573" width="604px" zoomAndPan="magnify"><defs/><g><!--cluster Reports--><g class="cluster" data-entity="Reports" data-source-line="112" data-uid="ent0007" id="cluster_Reports"><path d="M175.08,140.53 L230.5118,140.53 A3.75,3.75 0 0 1 233.0118,143.03 L240.0118,165.5979 L476.07,165.5979 A2.5,2.5 0 0 1 478.57,168.0979 L478.57,564.03 A2.5,2.5 0 0 1 476.07,566.53 L175.08,566.53 A2.5,2.5 0 0 1 172.58,564.03 L172.58,143.03 A2.5,2.5 0 0 1 175.08,140.53" fill="none" style="stroke:#000000;stroke-width:1.5;"/><line style="stroke:#000000;stroke-width:1.5;" x1="172.58" x2="240.0118" y1="165.5979" y2="165.5979"/><text fill="#000000" font-family="'Kanit'" font-size="14" font-weight="bold" lengthAdjust="spacing" textLength="54.4318" x="176.58" y="157.4959">Reports</text></g><!--entity R1--><g class="entity" data-entity="R1" data-source-line="113" data-uid="ent0008" id="entity_R1"><ellipse cx="325.5839" cy="194.5331" fill="#F1F1F1" rx="58.7439" ry="16.4831" style="stroke:#181818;stroke-width:0.5;"/><text fill="#000000" font-family="'Kanit'" font-size="14" lengthAdjust="spacing" textLength="78.8337" x="286.167" y="200.567">Dashboard?</text></g><!--entity R2--><g class="entity" data-entity="R2" data-source-line="114" data-uid="ent0009" id="entity_R2"><ellipse cx="325.5757" cy="275.5291" fill="#F1F1F1" rx="136.9957" ry="29.7991" style="stroke:#181818;stroke-width:0.5;"/><text fill="#000000" font-family="'Kanit'" font-size="14" lengthAdjust="spacing" textLength="250.459" x="200.3462" y="281.5631">&#3604;&#3641;&#3612;&#3621;&#3588;&#3632;&#3649;&#3609;&#3609;&#3586;&#3629;&#3591;&#3626;&#3611;&#3585;. &#3651;&#3609;&#3611;&#3637;&#3611;&#3633;&#3592;&#3592;&#3640;&#3610;&#3633;&#3609;&#3649;&#3621;&#3632;&#3618;&#3657;&#3629;&#3609;&#3627;&#3621;&#3633;&#3591;</text></g><!--entity R3--><g class="entity" data-entity="R3" data-source-line="115" data-uid="ent0010" id="entity_R3"><ellipse cx="325.5833" cy="435.5307" fill="#F1F1F1" rx="115.4533" ry="25.4907" style="stroke:#181818;stroke-width:0.5;"/><text fill="#000000" font-family="'Kanit'" font-size="14" lengthAdjust="spacing" textLength="203.6992" x="223.7337" y="441.5646">&#3604;&#3641; report &#3612;&#3621;&#3588;&#3632;&#3649;&#3609;&#3609;&#3621;&#3656;&#3634;&#3626;&#3640;&#3604;&#3586;&#3629;&#3591;&#3605;&#3609;&#3648;&#3629;&#3591;</text></g><!--entity R4--><g class="entity" data-entity="R4" data-source-line="116" data-uid="ent0011" id="entity_R4"><ellipse cx="325.5776" cy="523.5255" fill="#F1F1F1" rx="123.8276" ry="27.1655" style="stroke:#181818;stroke-width:0.5;"/><text fill="#000000" font-family="'Kanit'" font-size="14" lengthAdjust="spacing" textLength="222.0532" x="214.551" y="529.5595">&#3604;&#3641; report &#3612;&#3621;&#3588;&#3632;&#3649;&#3609;&#3609;&#3618;&#3657;&#3629;&#3609;&#3627;&#3621;&#3633;&#3591;&#3586;&#3629;&#3591;&#3605;&#3609;&#3648;&#3629;&#3591;</text></g><!--entity R5--><g class="entity" data-entity="R5" data-source-line="117" data-uid="ent0012" id="entity_R5"><ellipse cx="325.5764" cy="357.5253" fill="#F1F1F1" rx="74.2764" ry="17.2553" style="stroke:#181818;stroke-width:0.5;"/><text fill="#000000" font-family="'Kanit'" font-size="14" lengthAdjust="spacing" textLength="105.9796" x="272.5866" y="363.5592">&#3626;&#3619;&#3640;&#3611;&#3611;&#3619;&#3632;&#3592;&#3635;&#3611;&#3637; &#3617;&#3629;&#3610;&#3650;&#3621;&#3656;</text></g><!--entity S--><g class="entity" data-entity="S" data-source-line="106" data-uid="ent0002" id="entity_S"><ellipse cx="559.95" cy="456" fill="#F1F1F1" rx="16" ry="16" style="stroke:#181818;stroke-width:0.5;"/><path d="M559.95,476 C563.95,476 566.95,476 570.95,472 C578.95,472 586.95,480 586.95,488 L586.95,492 C586.95,496 582.95,500 578.95,500 L540.95,500 C536.95,500 532.95,496 532.95,492 L532.95,488 C532.95,480 540.95,472 548.95,472 C552.95,476 555.95,476 559.95,476" fill="#F1F1F1" style="stroke:#181818;stroke-width:0.5;"/><text fill="#000000" font-family="'Kanit'" font-size="14" lengthAdjust="spacing" textLength="48.2998" x="535.8001" y="515.4659">&#3592;&#3611;.&#3626;&#3611;&#3585;.</text></g><!--entity A--><g class="entity" data-entity="A" data-source-line="107" data-uid="ent0003" id="entity_A"><ellipse cx="559.9428" cy="252" fill="#F1F1F1" rx="16" ry="16" style="stroke:#181818;stroke-width:0.5;"/><path d="M559.9428,272 C563.9428,272 566.9428,272 570.9428,268 C578.9428,268 586.9428,276 586.9428,284 L586.9428,288 C586.9428,292 582.9428,296 578.9428,296 L540.9428,296 C536.9428,296 532.9428,292 532.9428,288 L532.9428,284 C532.9428,276 540.9428,268 548.9428,268 C552.9428,272 555.9428,272 559.9428,272" fill="#F1F1F1" style="stroke:#181818;stroke-width:0.5;"/><text fill="#000000" font-family="'Kanit'" font-size="14" lengthAdjust="spacing" textLength="74.7457" x="522.57" y="311.4659">admin DDC</text></g><!--entity R--><g class="entity" data-entity="R" data-source-line="108" data-uid="ent0004" id="entity_R"><ellipse cx="67.2918" cy="22" fill="#F1F1F1" rx="16" ry="16" style="stroke:#181818;stroke-width:0.5;"/><path d="M67.2918,42 C71.2918,42 74.2918,42 78.2918,38 C86.2918,38 94.2918,46 94.2918,54 L94.2918,58 C94.2918,62 90.2918,66 86.2918,66 L48.2918,66 C44.2918,66 40.2918,62 40.2918,58 L40.2918,54 C40.2918,46 48.2918,38 56.2918,38 C60.2918,42 63.2918,42 67.2918,42" fill="#F1F1F1" style="stroke:#181818;stroke-width:0.5;"/><text fill="#000000" font-family="'Kanit'" font-size="14" lengthAdjust="spacing" textLength="122.5835" x="6" y="81.4659">&#3612;&#3641;&#3657;&#3611;&#3619;&#3632;&#3648;&#3617;&#3636;&#3609;[&#3629;&#3609;&#3634;&#3617;&#3633;&#3618;, &#3592;&#3636;&#3605;]</text></g><!--entity RO--><g class="entity" data-entity="RO" data-source-line="109" data-uid="ent0005" id="entity_RO"><ellipse cx="67.2888" cy="137" fill="#F1F1F1" rx="16" ry="16" style="stroke:#181818;stroke-width:0.5;"/><path d="M67.2888,157 C71.2888,157 74.2888,157 78.2888,153 C86.2888,153 94.2888,161 94.2888,169 L94.2888,173 C94.2888,177 90.2888,181 86.2888,181 L48.2888,181 C44.2888,181 40.2888,177 40.2888,173 L40.2888,169 C40.2888,161 48.2888,153 56.2888,153 C60.2888,157 63.2888,157 67.2888,157" fill="#F1F1F1" style="stroke:#181818;stroke-width:0.5;"/><text fill="#000000" font-family="'Kanit'" font-size="14" lengthAdjust="spacing" textLength="78.2177" x="28.18" y="196.4659">admin[&#3626;&#3588;&#3619;.]</text></g><!--entity P--><g class="entity" data-entity="P" data-source-line="110" data-uid="ent0006" id="entity_P"><ellipse cx="67.2958" cy="252" fill="#F1F1F1" rx="16" ry="16" style="stroke:#181818;stroke-width:0.5;"/><path d="M67.2958,272 C71.2958,272 74.2958,272 78.2958,268 C86.2958,268 94.2958,276 94.2958,284 L94.2958,288 C94.2958,292 90.2958,296 86.2958,296 L48.2958,296 C44.2958,296 40.2958,292 40.2958,288 L40.2958,284 C40.2958,276 48.2958,268 56.2958,268 C60.2958,272 63.2958,272 67.2958,272" fill="#F1F1F1" style="stroke:#181818;stroke-width:0.5;"/><text fill="#000000" font-family="'Kanit'" font-size="14" lengthAdjust="spacing" textLength="102.1716" x="16.21" y="311.4659">admin Province</text></g><!--reverse link R3 to S--><g class="link" data-entity-1="R3" data-entity-2="S" data-source-line="120" data-uid="lnk14" id="link_R3_S"><path d="M420.3251,453.2771 C462.2251,461.2171 503.46,469.02 532.18,474.46" fill="none" id="R3-backto-S" style="stroke:#181818;stroke-width:1;"/><polygon fill="#181818" points="414.43,452.16,422.5279,457.7657,419.3426,453.0909,424.0174,449.9056,414.43,452.16" style="stroke:#181818;stroke-width:1;"/></g><!--reverse link R4 to S--><g class="link" data-entity-1="R4" data-entity-2="S" data-source-line="121" data-uid="lnk16" id="link_R4_S"><path d="M426.3153,504.6441 C466.6253,497.0141 504.76,489.79 532.12,484.61" fill="none" id="R4-backto-S" style="stroke:#181818;stroke-width:1;"/><polygon fill="#181818" points="420.42,505.76,430.0069,508.0164,425.3328,504.8301,428.5191,500.156,420.42,505.76" style="stroke:#181818;stroke-width:1;"/></g><!--reverse link R5 to A--><g class="link" data-entity-1="R5" data-entity-2="A" data-source-line="123" data-uid="lnk18" id="link_R5_A"><path d="M396.7757,347.8503 C426.6457,342.4903 456.27,335.19 486.57,322.53 C498.88,317.39 511.37,310.14 522.44,302.88" fill="none" id="R5-backto-A" style="stroke:#181818;stroke-width:1;"/><polygon fill="#181818" points="390.87,348.91,400.435,351.2575,395.7914,348.0269,399.022,343.3833,390.87,348.91" style="stroke:#181818;stroke-width:1;"/></g><!--reverse link R2 to A--><g class="link" data-entity-1="R2" data-entity-2="A" data-source-line="124" data-uid="lnk20" id="link_R2_A"><path d="M468.76,275.53 C490.75,275.53 505.75,275.53 522.49,275.53" fill="none" id="R2-backto-A" style="stroke:#181818;stroke-width:1;"/><polygon fill="#181818" points="462.76,275.53,471.76,279.53,467.76,275.53,471.76,271.53,462.76,275.53" style="stroke:#181818;stroke-width:1;"/></g><!--reverse link R1 to A--><g class="link" data-entity-1="R1" data-entity-2="A" data-source-line="125" data-uid="lnk22" id="link_R1_A"><path d="M386.2071,201.8525 C417.9871,206.8525 452.6,214.46 486.57,228.53 C498.76,233.58 511.11,240.71 522.09,247.89" fill="none" id="R1-backto-A" style="stroke:#181818;stroke-width:1;"/><polygon fill="#181818" points="380.28,200.92,388.549,206.2702,385.2192,201.6971,389.7923,198.3674,380.28,200.92" style="stroke:#181818;stroke-width:1;"/></g><!--link RO to R1--><g class="link" data-entity-1="RO" data-entity-2="R1" data-source-line="127" data-uid="lnk23" id="link_RO_R1"><path d="M106.66,165.62 C150.51,171.44 216.5921,180.201 265.7421,186.721" fill="none" id="RO-to-R1" style="stroke:#181818;stroke-width:1;"/><polygon fill="#181818" points="271.69,187.51,263.2942,182.3612,266.7334,186.8525,262.2421,190.2917,271.69,187.51" style="stroke:#181818;stroke-width:1;"/></g><!--link P to R1--><g class="link" data-entity-1="P" data-entity-2="R1" data-source-line="129" data-uid="lnk24" id="link_P_R1"><path d="M118.77,248.02 C133.26,240.92 149.28,233.8 164.58,228.53 C199.89,216.37 235.2289,208.7589 266.9989,203.2289" fill="none" id="P-to-R1" style="stroke:#181818;stroke-width:1;"/><polygon fill="#181818" points="272.91,202.2,263.3574,199.8026,267.9841,203.0574,264.7293,207.6841,272.91,202.2" style="stroke:#181818;stroke-width:1;"/></g><!--link P to R2--><g class="link" data-entity-1="P" data-entity-2="R2" data-source-line="130" data-uid="lnk25" id="link_P_R2"><path d="M118.62,275.53 C138.88,275.53 157.32,275.53 182.18,275.53" fill="none" id="P-to-R2" style="stroke:#181818;stroke-width:1;"/><polygon fill="#181818" points="188.18,275.53,179.18,271.53,183.18,275.53,179.18,279.53,188.18,275.53" style="stroke:#181818;stroke-width:1;"/></g><!--SRC=[xLPTQnD157tVNp7uf623-Kv3gKIxleXssU9JaJ9cf-tQP3ViRXgb2AOMMi477reaIL7Q4WgLWcqLP__D_1HdxkpkRDAqLdnKMCYTZtlkkNVct4c3B0SeS95dhwm6oB8zKWzirz7yDTjfOGyt4Qu7hhSGl6uGX3l4TviajMYHPTnk18zS9tYAcmJTUemTExYbLHdTONIGOVI4_p3QpLGHzj42qghOQjeEcfjx23CriNMVqP25xs7d4QFVMFYMqGD6lpFQMsJqbFymUWvJPumUtaM0pbVtdWE86Q4kGhWj3fA95kRZU8RdhjjEdS2qeMajN5_3AmJLwdMtxGHBJx33XqtY16X3G-Xs79N6KVSWO1TuS8v3HhSP_HIJxJFwWpFZBdSWgo9WX5tXmHCBEQTDyOaaJm4ov1X8bKUwbMNe8G3-TdT51k7XFmjo8Q_90PBfHdMaky2z3qEEj2qTfsMOFPW-XcAUm7e_bU59dBcef_JBtjFUgD8zmBvTNthc2tiZ8NvTLR89OPdREKG9WRdaoptwSc_kHdilrIIV7DufvB83djtB-0MnqIC-2L0B-tx7zIovK18vBg2fTcjgLb1Ep9moyyeiABEapBAcrPHVJMrEp8eoIygSLcPHcMLbyYFGp7aqPRaTHuAdHuMHKMbaL1mP0Su8p0XA6aJJ39MAeL8n57z3CJNIJ6jPb16XKHNDp73vDTeMcPtbY0xfjFYzqRJ6Fzv_z7NSQ8kCOmbnjVo4U8SGhASKEQA58n32iU0KRigOeBreCrnbNUfDwF42Ub4VlWb9GY_emKpI9VHSqiDwma_qi2z2uk47Hh-2riyWtaS8AIMkvoSrlZ-FNPZOFw-CAjljPFIH_g2NhghoFc0dtMyYrAQaEDvqzBBi9I_vtKL_XrI9cWyNa9wDZLniv6EZ80sUDuXQJ9KIgvnO5T2uNDNq4igqMncn0UH8NWN4iNmkHxLI6L-fn2lZ4bOhXN5n_zTsf6sJj5mlyAMovx2_-iB5ddKVJjgCjBaBRxkyCbj0J-fDtH6L9cBXErWPmBiw0COxy55G5zna0J24n-um_WFHIqb72ipCgV380vxe2Xf3w3Jo-QNWaH2xB5mpVsFSoUokHvTjGJ0v0Z83TQoY2XUoD0XE4_xEYDue4f3knVJJRgf7dECcBwoftbrJlTpykDBFfnWQwL5gaFi5]--></g></svg>