<svg xmlns="http://www.w3.org/2000/svg" xmlns:xlink="http://www.w3.org/1999/xlink" contentStyleType="text/css" data-diagram-type="DESCRIPTION" height="621px" preserveAspectRatio="none" style="width:924px;height:621px;background:#FFFFFF;" version="1.1" viewBox="0 0 924 621" width="924px" zoomAndPan="magnify"><defs/><g><!--cluster Evalution--><g class="cluster" data-entity="Evalution" data-source-line="73" data-uid="ent0007" id="cluster_Evalution"><path d="M157.67,75.53 L224.6098,75.53 A3.75,3.75 0 0 1 227.1098,78.03 L234.1098,100.5979 L914.86,100.5979 A2.5,2.5 0 0 1 917.36,103.0979 L917.36,448.03 A2.5,2.5 0 0 1 914.86,450.53 L157.67,450.53 A2.5,2.5 0 0 1 155.17,448.03 L155.17,78.03 A2.5,2.5 0 0 1 157.67,75.53" fill="none" style="stroke:#000000;stroke-width:1.5;"/><line style="stroke:#000000;stroke-width:1.5;" x1="155.17" x2="234.1098" y1="100.5979" y2="100.5979"/><text fill="#000000" font-family="'Kanit'" font-size="14" font-weight="bold" lengthAdjust="spacing" textLength="65.9398" x="159.17" y="92.4959">Evalution</text></g><!--entity E1--><g class="entity" data-entity="E1" data-source-line="74" data-uid="ent0008" id="entity_E1"><ellipse cx="259.9682" cy="275.5296" fill="#F1F1F1" rx="88.7982" ry="20.1596" style="stroke:#181818;stroke-width:0.5;"/><text fill="#000000" font-family="'Kanit'" font-size="14" lengthAdjust="spacing" textLength="142.6734" x="188.6315" y="281.5636">&#3618;&#3639;&#3609;&#3618;&#3633;&#3609;&#3585;&#3634;&#3619;&#3648;&#3586;&#3657;&#3634;&#3619;&#3656;&#3623;&#3617;&#3650;&#3588;&#3619;&#3591;&#3585;&#3634;&#3619;</text></g><!--entity E2--><g class="entity" data-entity="E2" data-source-line="75" data-uid="ent0009" id="entity_E2"><ellipse cx="259.9702" cy="348.528" fill="#F1F1F1" rx="78.6902" ry="18.138" style="stroke:#181818;stroke-width:0.5;"/><text fill="#000000" font-family="'Kanit'" font-size="14" lengthAdjust="spacing" textLength="117.5855" x="201.1774" y="354.562">&#3607;&#3635;&#3649;&#3610;&#3610;&#3611;&#3619;&#3632;&#3648;&#3617;&#3636;&#3609;&#3605;&#3609;&#3648;&#3629;&#3591;</text></g><!--entity E3--><g class="entity" data-entity="E3" data-source-line="76" data-uid="ent0010" id="entity_E3"><ellipse cx="259.9698" cy="418.5331" fill="#F1F1F1" rx="68.9898" ry="16.4831" style="stroke:#181818;stroke-width:0.5;"/><text fill="#000000" font-family="'Kanit'" font-size="14" lengthAdjust="spacing" textLength="93.3236" x="213.308" y="424.567">&#3649;&#3609;&#3610;&#3652;&#3615;&#3621;&#3660;&#3627;&#3621;&#3633;&#3585;&#3600;&#3634;&#3609;</text></g><!--entity E4--><g class="entity" data-entity="E4" data-source-line="77" data-uid="ent0011" id="entity_E4"><ellipse cx="259.9698" cy="132.534" fill="#F1F1F1" rx="84.2698" ry="19.254" style="stroke:#181818;stroke-width:0.5;"/><text fill="#000000" font-family="'Kanit'" font-size="14" lengthAdjust="spacing" textLength="131.6415" x="194.1491" y="138.5679">&#3649;&#3585;&#3657;&#3652;&#3586;&#3649;&#3610;&#3610;&#3611;&#3619;&#3632;&#3648;&#3617;&#3636;&#3609;&#3605;&#3609;&#3648;&#3629;&#3591;</text></g><!--entity E5--><g class="entity" data-entity="E5" data-source-line="78" data-uid="ent0012" id="entity_E5"><ellipse cx="259.9728" cy="203.5331" fill="#F1F1F1" rx="55.8928" ry="16.4831" style="stroke:#181818;stroke-width:0.5;"/><text fill="#000000" font-family="'Kanit'" font-size="14" lengthAdjust="spacing" textLength="74.8017" x="222.5719" y="209.567">&#3649;&#3585;&#3657;&#3652;&#3586;&#3627;&#3621;&#3633;&#3585;&#3600;&#3634;&#3609;</text></g><!--entity E6--><g class="entity" data-entity="E6" data-source-line="79" data-uid="ent0013" id="entity_E6"><ellipse cx="848.8875" cy="409.5331" fill="#F1F1F1" rx="52.4775" ry="16.4831" style="stroke:#181818;stroke-width:0.5;"/><text fill="#000000" font-family="'Kanit'" font-size="14" lengthAdjust="spacing" textLength="69.9717" x="813.9016" y="415.567">&#3611;&#3619;&#3632;&#3648;&#3617;&#3636;&#3609;&#3626;&#3611;&#3585;.</text></g><!--entity E7--><g class="entity" data-entity="E7" data-source-line="80" data-uid="ent0014" id="entity_E7"><ellipse cx="570.5853" cy="404.5291" fill="#F1F1F1" rx="99.8453" ry="22.3691" style="stroke:#181818;stroke-width:0.5;"/><text fill="#000000" font-family="'Kanit'" font-size="14" lengthAdjust="spacing" textLength="168.6013" x="486.2846" y="410.563">&#3618;&#3639;&#3609;&#3618;&#3633;&#3609;&#3612;&#3621;&#3585;&#3634;&#3619;&#3611;&#3619;&#3632;&#3648;&#3617;&#3636;&#3609;&#3586;&#3629;&#3591; &#3626;&#3611;&#3585;.</text></g><!--entity E8--><g class="entity" data-entity="E8" data-source-line="81" data-uid="ent0015" id="entity_E8"><ellipse cx="570.5907" cy="264.5341" fill="#F1F1F1" rx="102.8207" ry="22.9641" style="stroke:#181818;stroke-width:0.5;"/><text fill="#000000" font-family="'Kanit'" font-size="14" lengthAdjust="spacing" textLength="175.4053" x="482.888" y="270.5681">reject &#3612;&#3621;&#3585;&#3634;&#3619;&#3611;&#3619;&#3632;&#3648;&#3617;&#3636;&#3609;&#3586;&#3629;&#3591; &#3626;&#3611;&#3585;.</text></g><!--entity S--><g class="entity" data-entity="S" data-source-line="67" data-uid="ent0002" id="entity_S"><ellipse cx="57.09" cy="252" fill="#F1F1F1" rx="16" ry="16" style="stroke:#181818;stroke-width:0.5;"/><path d="M57.09,272 C61.09,272 64.09,272 68.09,268 C76.09,268 84.09,276 84.09,284 L84.09,288 C84.09,292 80.09,296 76.09,296 L38.09,296 C34.09,296 30.09,292 30.09,288 L30.09,284 C30.09,276 38.09,268 46.09,268 C50.09,272 53.09,272 57.09,272" fill="#F1F1F1" style="stroke:#181818;stroke-width:0.5;"/><text fill="#000000" font-family="'Kanit'" font-size="14" lengthAdjust="spacing" textLength="48.2998" x="32.9401" y="311.4659">&#3592;&#3611;.&#3626;&#3611;&#3585;.</text></g><!--entity A--><g class="entity" data-entity="A" data-source-line="68" data-uid="ent0003" id="entity_A"><ellipse cx="57.0828" cy="137" fill="#F1F1F1" rx="16" ry="16" style="stroke:#181818;stroke-width:0.5;"/><path d="M57.0828,157 C61.0828,157 64.0828,157 68.0828,153 C76.0828,153 84.0828,161 84.0828,169 L84.0828,173 C84.0828,177 80.0828,181 76.0828,181 L38.0828,181 C34.0828,181 30.0828,177 30.0828,173 L30.0828,169 C30.0828,161 38.0828,153 46.0828,153 C50.0828,157 53.0828,157 57.0828,157" fill="#F1F1F1" style="stroke:#181818;stroke-width:0.5;"/><text fill="#000000" font-family="'Kanit'" font-size="14" lengthAdjust="spacing" textLength="74.7457" x="19.71" y="196.4659">admin DDC</text></g><!--entity R--><g class="entity" data-entity="R" data-source-line="69" data-uid="ent0004" id="entity_R"><ellipse cx="570.5918" cy="483" fill="#F1F1F1" rx="16" ry="16" style="stroke:#181818;stroke-width:0.5;"/><path d="M570.5918,503 C574.5918,503 577.5918,503 581.5918,499 C589.5918,499 597.5918,507 597.5918,515 L597.5918,519 C597.5918,523 593.5918,527 589.5918,527 L551.5918,527 C547.5918,527 543.5918,523 543.5918,519 L543.5918,515 C543.5918,507 551.5918,499 559.5918,499 C563.5918,503 566.5918,503 570.5918,503" fill="#F1F1F1" style="stroke:#181818;stroke-width:0.5;"/><text fill="#000000" font-family="'Kanit'" font-size="14" lengthAdjust="spacing" textLength="122.5835" x="509.3" y="542.4659">&#3612;&#3641;&#3657;&#3611;&#3619;&#3632;&#3648;&#3617;&#3636;&#3609;[&#3629;&#3609;&#3634;&#3617;&#3633;&#3618;, &#3592;&#3636;&#3605;]</text></g><!--entity RO--><g class="entity" data-entity="RO" data-source-line="70" data-uid="ent0005" id="entity_RO"><ellipse cx="259.9688" cy="487" fill="#F1F1F1" rx="16" ry="16" style="stroke:#181818;stroke-width:0.5;"/><path d="M259.9688,507 C263.9688,507 266.9688,507 270.9688,503 C278.9688,503 286.9688,511 286.9688,519 L286.9688,523 C286.9688,527 282.9688,531 278.9688,531 L240.9688,531 C236.9688,531 232.9688,527 232.9688,523 L232.9688,519 C232.9688,511 240.9688,503 248.9688,503 C252.9688,507 255.9688,507 259.9688,507" fill="#F1F1F1" style="stroke:#181818;stroke-width:0.5;"/><text fill="#000000" font-family="'Kanit'" font-size="14" lengthAdjust="spacing" textLength="78.2177" x="220.86" y="546.4659">admin[&#3626;&#3588;&#3619;.]</text></g><!--entity P--><g class="entity" data-entity="P" data-source-line="71" data-uid="ent0006" id="entity_P"><ellipse cx="57.0858" cy="22" fill="#F1F1F1" rx="16" ry="16" style="stroke:#181818;stroke-width:0.5;"/><path d="M57.0858,42 C61.0858,42 64.0858,42 68.0858,38 C76.0858,38 84.0858,46 84.0858,54 L84.0858,58 C84.0858,62 80.0858,66 76.0858,66 L38.0858,66 C34.0858,66 30.0858,62 30.0858,58 L30.0858,54 C30.0858,46 38.0858,38 46.0858,38 C50.0858,42 53.0858,42 57.0858,42" fill="#F1F1F1" style="stroke:#181818;stroke-width:0.5;"/><text fill="#000000" font-family="'Kanit'" font-size="14" lengthAdjust="spacing" textLength="102.1716" x="6" y="81.4659">admin Province</text></g><!--link S to E1--><g class="link" data-entity-1="S" data-entity-2="E1" data-source-line="84" data-uid="lnk16" id="link_S_E1"><path d="M84.76,275.53 C106.85,275.53 133.56,275.53 164.68,275.53" fill="none" id="S-to-E1" style="stroke:#181818;stroke-width:1;"/><polygon fill="#181818" points="170.68,275.53,161.68,271.53,165.68,275.53,161.68,279.53,170.68,275.53" style="stroke:#181818;stroke-width:1;"/></g><!--link S to E2--><g class="link" data-entity-1="S" data-entity-2="E2" data-source-line="85" data-uid="lnk17" id="link_S_E2"><path d="M84.7,287.71 C102.26,295.54 125.87,305.68 147.17,313.53 C167.4,320.99 184.3014,326.5183 203.8914,332.4983" fill="none" id="S-to-E2" style="stroke:#181818;stroke-width:1;"/><polygon fill="#181818" points="209.63,334.25,202.19,327.7967,204.8478,332.7902,199.8543,335.4481,209.63,334.25" style="stroke:#181818;stroke-width:1;"/></g><!--link S to E3--><g class="link" data-entity-1="S" data-entity-2="E3" data-source-line="86" data-uid="lnk18" id="link_S_E3"><path d="M82.4,315.9 C98.22,339.01 120.78,366.84 147.17,384.53 C164.02,395.82 178.9776,401.9155 198.0076,407.0555" fill="none" id="S-to-E3" style="stroke:#181818;stroke-width:1;"/><polygon fill="#181818" points="203.8,408.62,196.1544,402.4116,198.973,407.3162,194.0683,410.1348,203.8,408.62" style="stroke:#181818;stroke-width:1;"/></g><!--link S to E4--><g class="link" data-entity-1="S" data-entity-2="E4" data-source-line="87" data-uid="lnk19" id="link_S_E4"><path d="M84.88,245.59 C92.49,236.94 100.73,227.42 108.17,218.53 C126.03,197.18 124.34,185.45 147.17,169.53 C162.18,159.06 174.6468,153.2228 191.9468,147.6728" fill="none" id="S-to-E4" style="stroke:#181818;stroke-width:1;"/><polygon fill="#181818" points="197.66,145.84,187.8683,144.7805,192.899,147.3674,190.3121,152.3981,197.66,145.84" style="stroke:#181818;stroke-width:1;"/></g><!--link S to E5--><g class="link" data-entity-1="S" data-entity-2="E5" data-source-line="88" data-uid="lnk20" id="link_S_E5"><path d="M85.07,263.12 C102.58,255.29 126,245.24 147.17,237.53 C170.33,229.1 190.9267,222.6787 212.2367,216.5087" fill="none" id="S-to-E5" style="stroke:#181818;stroke-width:1;"/><polygon fill="#181818" points="218,214.84,208.2426,213.5008,213.1973,216.2306,210.4675,221.1852,218,214.84" style="stroke:#181818;stroke-width:1;"/></g><!--link RO to E6--><g class="link" data-entity-1="RO" data-entity-2="E6" data-source-line="90" data-uid="lnk21" id="link_RO_E6"><path d="M299.36,527.49 C373.99,557.92 542.79,614.17 673.41,564.53 C748.02,536.18 807.5367,464.4825 832.6667,430.7325" fill="none" id="RO-to-E6" style="stroke:#181818;stroke-width:1;"/><polygon fill="#181818" points="836.25,425.92,827.6667,430.7498,833.2639,429.9304,834.0833,435.5276,836.25,425.92" style="stroke:#181818;stroke-width:1;"/></g><!--link RO to E7--><g class="link" data-entity-1="RO" data-entity-2="E7" data-source-line="91" data-uid="lnk22" id="link_RO_E7"><path d="M299.43,497.32 C353.56,478.73 446.8352,446.6884 508.7852,425.4184" fill="none" id="RO-to-E7" style="stroke:#181818;stroke-width:1;"/><polygon fill="#181818" points="514.46,423.47,504.6488,422.6094,509.731,425.0937,507.2467,430.1758,514.46,423.47" style="stroke:#181818;stroke-width:1;"/></g><!--link RO to E8--><g class="link" data-entity-1="RO" data-entity-2="E8" data-source-line="92" data-uid="lnk23" id="link_RO_E8"><path d="M299.16,485.65 C314.79,475.16 332.89,462.59 348.77,450.53 C422.2,394.73 499.6709,327.0522 539.9609,291.1422" fill="none" id="RO-to-E8" style="stroke:#181818;stroke-width:1;"/><polygon fill="#181818" points="544.44,287.15,535.0599,290.1522,540.7074,290.4768,540.3828,296.1244,544.44,287.15" style="stroke:#181818;stroke-width:1;"/></g><!--link R to E6--><g class="link" data-entity-1="R" data-entity-2="E6" data-source-line="94" data-uid="lnk24" id="link_R_E6"><path d="M632.22,485.24 C687.5,465.84 761.6084,439.8165 807.0384,423.8765" fill="none" id="R-to-E6" style="stroke:#181818;stroke-width:1;"/><polygon fill="#181818" points="812.7,421.89,802.8833,421.0953,807.982,423.5454,805.5319,428.6441,812.7,421.89" style="stroke:#181818;stroke-width:1;"/></g><!--reverse link E7 to E6--><g class="link" data-entity-1="E7" data-entity-2="E6" data-source-line="96" data-uid="lnk26" id="link_E7_E6"><path d="M676.559,406.4289 C718.989,407.1989 760.79,407.95 796.06,408.59" fill="none" id="E7-backto-E6" style="stroke:#181818;stroke-width:1;stroke-dasharray:7,7;"/><polygon fill="#181818" points="670.56,406.32,679.4859,410.4826,675.5592,406.4107,679.6311,402.484,670.56,406.32" style="stroke:#181818;stroke-width:1;"/><text fill="#000000" font-family="'Kanit'" font-size="13" lengthAdjust="spacing" textLength="61.724" x="704.41" y="402.927">&#171;extends&#187;</text></g><!--reverse link E8 to E6--><g class="link" data-entity-1="E8" data-entity-2="E6" data-source-line="97" data-uid="lnk28" id="link_E8_E6"><path d="M617.673,288.7179 C674.863,318.7279 772.05,369.73 820.75,395.29" fill="none" id="E8-backto-E6" style="stroke:#181818;stroke-width:1;stroke-dasharray:7,7;"/><polygon fill="#181818" points="612.36,285.93,618.4708,293.6539,616.7875,288.2533,622.188,286.5699,612.36,285.93" style="stroke:#181818;stroke-width:1;"/><text fill="#000000" font-family="'Kanit'" font-size="13" lengthAdjust="spacing" textLength="61.724" x="704.41" y="332.927">&#171;extends&#187;</text></g><!--reverse link E5 to E8--><g class="link" data-entity-1="E5" data-entity-2="E8" data-source-line="98" data-uid="lnk30" id="link_E5_E8"><path d="M313.0562,213.823 C361.9962,223.493 434.18,237.77 492.47,249.29" fill="none" id="E5-backto-E8" style="stroke:#181818;stroke-width:1;stroke-dasharray:7,7;"/><polygon fill="#181818" points="307.17,212.66,315.2239,218.3287,312.0752,213.6292,316.7747,210.4804,307.17,212.66" style="stroke:#181818;stroke-width:1;"/><text fill="#000000" font-family="'Kanit'" font-size="13" lengthAdjust="spacing" textLength="57.5771" x="379.77" y="224.467">&#171;include&#187;</text></g><!--reverse link E4 to E8--><g class="link" data-entity-1="E4" data-entity-2="E8" data-source-line="99" data-uid="lnk32" id="link_E4_E8"><path d="M311.6501,151.1711 C347.6001,164.6111 393.48,182.34 437.77,201.53 C468.02,214.64 501.54,230.68 527.21,243.3" fill="none" id="E4-backto-E8" style="stroke:#181818;stroke-width:1;stroke-dasharray:7,7;"/><polygon fill="#181818" points="306.03,149.07,313.0594,155.9684,310.7134,150.8209,315.8609,148.4749,306.03,149.07" style="stroke:#181818;stroke-width:1;"/><text fill="#000000" font-family="'Kanit'" font-size="13" lengthAdjust="spacing" textLength="57.5771" x="379.77" y="173.467">&#171;include&#187;</text></g><!--SRC=[xLPTQnD157tVNp7uf623-Kv3gKIxleXssU9JaJ9cf-tQP3ViRXgb2AOMMi477reaIL7Q4WgLWcqLP__D_1HdxkpkRDAqLdnKMCYTZtlkkNVct4c3B0SeS95dhwm6oB8zKWzirz7yDTjfOGyt4Qu7hhSGl6uGX3l4TviajMYHPTnk18zS9tYAcmJTUemTExYbLHdTONIGOVI4_p3QpLGHzj42qghOQjeEcfjx23CriNMVqP25xs7d4QFVMFYMqGD6lpFQMsJqbFymUWvJPumUtaM0pbVtdWE86Q4kGhWj3fA95kRZU8RdhjjEdS2qeMajN5_3AmJLwdMtxGHBJx33XqtY16X3G-Xs79N6KVSWO1TuS8v3HhSP_HIJxJFwWpFZBdSWgo9WX5tXmHCBEQTDyOaaJm4ov1X8bKUwbMNe8G3-TdT51k7XFmjo8Q_90PBfHdMaky2z3qEEj2qTfsMOFPW-XcAUm7e_bU59dBcef_JBtjFUgD8zmBvTNthc2tiZ8NvTLR89OPdREKG9WRdaoptwSc_kHdilrIIV7DufvB83djtB-0MnqIC-2L0B-tx7zIovK18vBg2fTcjgLb1Ep9moyyeiABEapBAcrPHVJMrEp8eoIygSLcPHcMLbyYFGp7aqPRaTHuAdHuMHKMbaL1mP0Su8p0XA6aJJ39MAeL8n57z3CJNIJ6jPb16XKHNDp73vDTeMcPtbY0xfjFYzqRJ6Fzv_z7NSQ8kCOmbnjVo4U8SGhASKEQA58n32iU0KRigOeBreCrnbNUfDwF42Ub4VlWb9GY_emKpI9VHSqiDwma_qi2z2uk47Hh-2riyWtaS8AIMkvoSrlZ-FNPZOFw-CAjljPFIH_g2NhghoFc0dtMyYrAQaEDvqzBBi9I_vtKL_XrI9cWyNa9wDZLniv6EZ80sUDuXQJ9KIgvnO5T2uNDNq4igqMncn0UH8NWN4iNmkHxLI6L-fn2lZ4bOhXN5n_zTsf6sJj5mlyAMovx2_-iB5ddKVJjgCjBaBRxkyCbj0J-fDtH6L9cBXErWPmBiw0COxy55G5zna0J24n-um_WFHIqb72ipCgV380vxe2Xf3w3Jo-QNWaH2xB5mpVsFSoUokHvTjGJ0v0Z83TQoY2XUoD0XE4_xEYDue4f3knVJJRgf7dECcBwoftbrJlTpykDBFfnWQwL5gaFi5]--></g></svg>