<svg xmlns="http://www.w3.org/2000/svg" xmlns:xlink="http://www.w3.org/1999/xlink" contentStyleType="text/css" data-diagram-type="ACTIVITY" height="1362px" preserveAspectRatio="none" style="width:1988px;height:1362px;background:#FFFFFF;" version="1.1" viewBox="0 0 1988 1362" width="1988px" zoomAndPan="magnify"><defs/><g><rect fill="none" height="32.6879" style="stroke:none;stroke-width:1;" width="1955.3788" x="15" y="15.532"/><rect fill="#FAEBD7" height="1335.3823" style="stroke:#FAEBD7;stroke-width:1;" width="538.0586" x="15" y="15.532"/><ellipse cx="420.8709" cy="63.2199" fill="#222222" rx="10" ry="10" style="stroke:#222222;stroke-width:1;"/><path d="M20,98.2199 L20,140.9078 A0,0 0 0 0 20,140.9078 L300.8232,140.9078 A0,0 0 0 0 300.8232,140.9078 L300.8232,123.5638 L320.8232,119.5638 L300.8232,115.5638 L300.8232,108.2199 L290.8232,98.2199 L20,98.2199 A0,0 0 0 0 20,98.2199" fill="#FEFFDD" style="stroke:#181818;stroke-width:0.5;"/><path d="M290.8232,98.2199 L290.8232,108.2199 L300.8232,108.2199 L290.8232,98.2199" fill="#FEFFDD" style="stroke:#181818;stroke-width:0.5;"/><text fill="#000000" font-family="'kanit'" font-size="24" lengthAdjust="spacing" textLength="259.8232" x="26" y="128.8758">&#3651;&#3610;&#3588;&#3635;&#3619;&#3657;&#3629;&#3591;, &#3649;&#3610;&#3610;&#3611;&#3619;&#3632;&#3626;&#3610;&#3585;&#3634;&#3619;&#3603;&#3660;</text><rect fill="#F1F1F1" height="52.6879" rx="12.5" ry="12.5" style="stroke:#181818;stroke-width:0.5;" width="200.0955" x="320.8232" y="93.2199"/><text fill="#000000" font-family="'kanit'" font-size="24" lengthAdjust="spacing" textLength="180.0955" x="330.8232" y="128.8758">&#3585;&#3619;&#3629;&#3585;&#3586;&#3657;&#3629;&#3617;&#3641;&#3621;&#3651;&#3609;&#3619;&#3632;&#3610;&#3610;</text><rect fill="#F1F1F1" height="52.6879" rx="12.5" ry="12.5" style="stroke:#181818;stroke-width:0.5;" width="119.8637" x="360.9391" y="165.9078"/><text fill="#000000" font-family="'kanit'" font-size="24" lengthAdjust="spacing" textLength="99.8637" x="370.9391" y="201.5637">&#3621;&#3591;&#3607;&#3632;&#3648;&#3610;&#3637;&#3618;&#3609;</text><rect fill="#F1F1F1" height="52.6879" rx="12.5" ry="12.5" style="stroke:#181818;stroke-width:0.5;" width="174.6075" x="333.5671" y="311.2836"/><text fill="#000000" font-family="'kanit'" font-size="24" lengthAdjust="spacing" textLength="154.6075" x="343.5671" y="346.9395">Upload &#3619;&#3641;&#3611;&#3616;&#3634;&#3614;</text><path d="M50.7799,388.9715 L50.7799,431.6594 A0,0 0 0 0 50.7799,431.6594 L331.6031,431.6594 A0,0 0 0 0 331.6031,431.6594 L331.6031,414.3155 L351.6031,410.3155 L331.6031,406.3155 L331.6031,398.9715 L321.6031,388.9715 L50.7799,388.9715 A0,0 0 0 0 50.7799,388.9715" fill="#FEFFDD" style="stroke:#181818;stroke-width:0.5;"/><path d="M321.6031,388.9715 L321.6031,398.9715 L331.6031,398.9715 L321.6031,388.9715" fill="#FEFFDD" style="stroke:#181818;stroke-width:0.5;"/><text fill="#000000" font-family="'kanit'" font-size="24" lengthAdjust="spacing" textLength="259.8232" x="56.7799" y="419.6274">&#3651;&#3610;&#3588;&#3635;&#3619;&#3657;&#3629;&#3591;, &#3649;&#3610;&#3610;&#3611;&#3619;&#3632;&#3626;&#3610;&#3585;&#3634;&#3619;&#3603;&#3660;</text><rect fill="#F1F1F1" height="52.6879" rx="12.5" ry="12.5" style="stroke:#181818;stroke-width:0.5;" width="138.5357" x="351.6031" y="383.9715"/><text fill="#000000" font-family="'kanit'" font-size="24" lengthAdjust="spacing" textLength="118.5357" x="361.6031" y="419.6274">&#3614;&#3636;&#3617;&#3614;&#3660;&#3648;&#3629;&#3585;&#3626;&#3634;&#3619;</text><rect fill="#F1F1F1" height="52.6879" rx="12.5" ry="12.5" style="stroke:#181818;stroke-width:0.5;" width="198.3195" x="321.7112" y="456.6594"/><text fill="#000000" font-family="'kanit'" font-size="24" lengthAdjust="spacing" textLength="178.3195" x="331.7112" y="492.3153">&#3648;&#3626;&#3609;&#3629;&#3627;&#3633;&#3623;&#3627;&#3609;&#3657;&#3634;&#3619;&#3633;&#3610;&#3619;&#3629;&#3591;</text><rect fill="#F1F1F1" height="52.6879" rx="12.5" ry="12.5" style="stroke:#181818;stroke-width:0.5;" width="109.7597" x="365.9911" y="1038.1626"/><text fill="#000000" font-family="'kanit'" font-size="24" lengthAdjust="spacing" textLength="89.7597" x="375.9911" y="1073.8186">&#3652;&#3604;&#3657;&#3619;&#3633;&#3610;&#3610;&#3633;&#3605;&#3619;</text><rect fill="#F1F1F1" height="52.6879" rx="12.5" ry="12.5" style="stroke:#181818;stroke-width:0.5;" width="191.8395" x="324.9512" y="1110.8505"/><text fill="#000000" font-family="'kanit'" font-size="24" lengthAdjust="spacing" textLength="171.8395" x="334.9512" y="1146.5065">&#3621;&#3591;&#3609;&#3634;&#3617;&#3619;&#3633;&#3610;&#3619;&#3629;&#3591;&#3610;&#3633;&#3605;&#3619;</text><rect fill="#F1F1F1" height="52.6879" rx="12.5" ry="12.5" style="stroke:#181818;stroke-width:0.5;" width="256.3753" x="292.6833" y="1183.5384"/><text fill="#000000" font-family="'kanit'" font-size="24" lengthAdjust="spacing" textLength="236.3753" x="302.6833" y="1219.1944">&#3649;&#3609;&#3610;&#3626;&#3635;&#3648;&#3609;&#3634;&#3610;&#3633;&#3605;&#3619;&#3621;&#3591;&#3651;&#3609;&#3619;&#3632;&#3610;&#3610;</text><line style="stroke:#000000;stroke-width:1.5;" x1="15" x2="15" y1="15.532" y2="1350.9143"/><rect fill="#87CEEB" height="1335.3823" style="stroke:#87CEEB;stroke-width:1;" width="770.5699" x="553.0586" y="15.532"/><rect fill="#F1F1F1" height="52.6879" rx="12.5" ry="12.5" style="stroke:#181818;stroke-width:0.5;" width="214.2074" x="1048.4692" y="238.5957"/><text fill="#000000" font-family="'kanit'" font-size="24" lengthAdjust="spacing" textLength="194.2074" x="1058.4692" y="274.2516">&#3629;&#3609;&#3640;&#3617;&#3633;&#3605;&#3636;&#3585;&#3634;&#3619;&#3621;&#3591;&#3607;&#3632;&#3648;&#3610;&#3637;&#3618;&#3609;</text><rect fill="#F1F1F1" height="52.6879" rx="12.5" ry="12.5" style="stroke:#181818;stroke-width:0.5;" width="328.111" x="991.5174" y="529.3473"/><text fill="#000000" font-family="'kanit'" font-size="24" lengthAdjust="spacing" textLength="308.111" x="1001.5174" y="565.0032">&#3648;&#3626;&#3609;&#3629;&#3612;&#3641;&#3657;&#3610;&#3619;&#3636;&#3627;&#3634;&#3619;&#3627;&#3609;&#3656;&#3623;&#3618;&#3610;&#3619;&#3636;&#3585;&#3634;&#3619;&#3619;&#3633;&#3610;&#3619;&#3629;&#3591;</text><path d="M558.0586,607.0352 L558.0586,649.7231 A0,0 0 0 0 558.0586,649.7231 L1064.7451,649.7231 A0,0 0 0 0 1064.7451,649.7231 L1064.7451,632.3792 L1084.7451,628.3792 L1064.7451,624.3792 L1064.7451,617.0352 L1054.7451,607.0352 L558.0586,607.0352 A0,0 0 0 0 558.0586,607.0352" fill="#FEFFDD" style="stroke:#181818;stroke-width:0.5;"/><path d="M1054.7451,607.0352 L1054.7451,617.0352 L1064.7451,617.0352 L1054.7451,607.0352" fill="#FEFFDD" style="stroke:#181818;stroke-width:0.5;"/><text fill="#000000" font-family="'kanit'" font-size="24" lengthAdjust="spacing" textLength="485.6865" x="564.0586" y="637.6911">&#3651;&#3610;&#3588;&#3635;&#3619;&#3657;&#3629;&#3591;&#3586;&#3629;,&#3649;&#3610;&#3610;&#3611;&#3619;&#3632;&#3626;&#3610;&#3585;&#3634;&#3619;&#3603;&#3660;,&#3610;&#3633;&#3605;&#3619;&#3611;&#3619;&#3632;&#3592;&#3635;&#3605;&#3633;&#3623;&#3592;&#3609;&#3607;.&#3619;&#3633;&#3600;</text><rect fill="#F1F1F1" height="52.6879" rx="12.5" ry="12.5" style="stroke:#181818;stroke-width:0.5;" width="141.6557" x="1084.7451" y="602.0352"/><text fill="#000000" font-family="'kanit'" font-size="24" lengthAdjust="spacing" textLength="121.6557" x="1094.7451" y="637.6911">Upload file</text><rect fill="#F1F1F1" height="52.6879" rx="12.5" ry="12.5" style="stroke:#181818;stroke-width:0.5;" width="210.0315" x="1050.5572" y="1256.2264"/><text fill="#000000" font-family="'kanit'" font-size="24" lengthAdjust="spacing" textLength="190.0315" x="1060.5572" y="1291.8823">&#3605;&#3619;&#3623;&#3592;&#3626;&#3629;&#3610;&#3626;&#3635;&#3648;&#3609;&#3634;&#3610;&#3633;&#3605;&#3619;</text><ellipse cx="1155.5729" cy="1339.9143" fill="none" rx="11" ry="11" style="stroke:#222222;stroke-width:1;"/><ellipse cx="1155.5729" cy="1339.9143" fill="#222222" rx="6" ry="6" style="stroke:#222222;stroke-width:1;"/><line style="stroke:#000000;stroke-width:1.5;" x1="553.0586" x2="553.0586" y1="15.532" y2="1350.9143"/><rect fill="#98FB98" height="1335.3823" style="stroke:#98FB98;stroke-width:1;" width="644.6304" x="1323.6284" y="15.532"/><rect fill="#F1F1F1" height="52.6879" rx="12.5" ry="12.5" style="stroke:#181818;stroke-width:0.5;" width="241.4474" x="1722.8114" y="674.7231"/><text fill="#000000" font-family="'kanit'" font-size="24" lengthAdjust="spacing" textLength="221.4474" x="1732.8114" y="710.379">&#3605;&#3619;&#3623;&#3592;&#3626;&#3629;&#3610;&#3648;&#3629;&#3585;&#3626;&#3634;&#3619;&#3607;&#3637;&#3656;&#3649;&#3609;&#3610;</text><path d="M1328.6284,752.411 L1328.6284,795.0989 A0,0 0 0 0 1328.6284,795.0989 L1725.8034,795.0989 A0,0 0 0 0 1725.8034,795.0989 L1725.8034,777.755 L1745.8034,773.755 L1725.8034,769.755 L1725.8034,762.411 L1715.8034,752.411 L1328.6284,752.411 A0,0 0 0 0 1328.6284,752.411" fill="#FEFFDD" style="stroke:#181818;stroke-width:0.5;"/><path d="M1715.8034,752.411 L1715.8034,762.411 L1725.8034,762.411 L1715.8034,752.411" fill="#FEFFDD" style="stroke:#181818;stroke-width:0.5;"/><text fill="#000000" font-family="'kanit'" font-size="24" lengthAdjust="spacing" textLength="376.1749" x="1334.6284" y="783.0669">&#3621;&#3591;&#3609;&#3634;&#3617;&#3604;&#3657;&#3623;&#3618;&#3617;&#3639;&#3629;,&#3621;&#3591;&#3609;&#3634;&#3617;&#3604;&#3657;&#3623;&#3618; Electronics</text><rect fill="#F1F1F1" height="52.6879" rx="12.5" ry="12.5" style="stroke:#181818;stroke-width:0.5;" width="195.4635" x="1745.8034" y="747.411"/><text fill="#000000" font-family="'kanit'" font-size="24" lengthAdjust="spacing" textLength="175.4635" x="1755.8034" y="783.0669">&#3648;&#3621;&#3639;&#3629;&#3585;&#3623;&#3636;&#3608;&#3637;&#3585;&#3634;&#3619;&#3621;&#3591;&#3609;&#3634;&#3617;</text><rect fill="#F1F1F1" height="52.6879" rx="12.5" ry="12.5" style="stroke:#181818;stroke-width:0.5;" width="161.2396" x="1762.9153" y="820.0989"/><text fill="#000000" font-family="'kanit'" font-size="24" lengthAdjust="spacing" textLength="141.2396" x="1772.9153" y="855.7549">&#3619;&#3632;&#3610;&#3640;&#3623;&#3633;&#3609;&#3607;&#3637;&#3656;&#3621;&#3591;&#3609;&#3634;&#3617;</text><rect fill="#F1F1F1" height="52.6879" rx="12.5" ry="12.5" style="stroke:#181818;stroke-width:0.5;" width="109.5677" x="1788.7513" y="892.7868"/><text fill="#000000" font-family="'kanit'" font-size="24" lengthAdjust="spacing" textLength="89.5677" x="1798.7513" y="928.4428">&#3614;&#3636;&#3617;&#3614;&#3660;&#3610;&#3633;&#3605;&#3619;</text><rect fill="#F1F1F1" height="52.6879" rx="12.5" ry="12.5" style="stroke:#181818;stroke-width:0.5;" width="214.5674" x="1736.2514" y="965.4747"/><text fill="#000000" font-family="'kanit'" font-size="24" lengthAdjust="spacing" textLength="194.5674" x="1746.2514" y="1001.1307">&#3626;&#3656;&#3591;&#3610;&#3633;&#3605;&#3619;&#3652;&#3611;&#3627;&#3634;&#3612;&#3641;&#3657;&#3619;&#3657;&#3629;&#3591;&#3586;&#3629;</text><line style="stroke:#000000;stroke-width:1.5;" x1="1323.6284" x2="1323.6284" y1="15.532" y2="1350.9143"/><line style="stroke:#000000;stroke-width:1.5;" x1="1968.2588" x2="1968.2588" y1="15.532" y2="1350.9143"/><line style="stroke:#181818;stroke-width:1;" x1="420.8709" x2="420.8709" y1="73.2199" y2="93.2199"/><polygon fill="#181818" points="416.8709,83.2199,420.8709,93.2199,424.8709,83.2199,420.8709,87.2199" style="stroke:#181818;stroke-width:1;"/><line style="stroke:#181818;stroke-width:1;" x1="420.8709" x2="420.8709" y1="145.9078" y2="165.9078"/><polygon fill="#181818" points="416.8709,155.9078,420.8709,165.9078,424.8709,155.9078,420.8709,159.9078" style="stroke:#181818;stroke-width:1;"/><line style="stroke:#181818;stroke-width:1;" x1="420.8709" x2="420.8709" y1="363.9715" y2="383.9715"/><polygon fill="#181818" points="416.8709,373.9715,420.8709,383.9715,424.8709,373.9715,420.8709,377.9715" style="stroke:#181818;stroke-width:1;"/><line style="stroke:#181818;stroke-width:1;" x1="420.8709" x2="420.8709" y1="436.6594" y2="456.6594"/><polygon fill="#181818" points="416.8709,446.6594,420.8709,456.6594,424.8709,446.6594,420.8709,450.6594" style="stroke:#181818;stroke-width:1;"/><line style="stroke:#181818;stroke-width:1;" x1="420.8709" x2="420.8709" y1="1090.8505" y2="1110.8505"/><polygon fill="#181818" points="416.8709,1100.8505,420.8709,1110.8505,424.8709,1100.8505,420.8709,1104.8505" style="stroke:#181818;stroke-width:1;"/><line style="stroke:#181818;stroke-width:1;" x1="420.8709" x2="420.8709" y1="1163.5384" y2="1183.5384"/><polygon fill="#181818" points="416.8709,1173.5384,420.8709,1183.5384,424.8709,1173.5384,420.8709,1177.5384" style="stroke:#181818;stroke-width:1;"/><line style="stroke:#181818;stroke-width:1;" x1="1155.5729" x2="1155.5729" y1="582.0352" y2="602.0352"/><polygon fill="#181818" points="1151.5729,592.0352,1155.5729,602.0352,1159.5729,592.0352,1155.5729,596.0352" style="stroke:#181818;stroke-width:1;"/><line style="stroke:#181818;stroke-width:1;" x1="1155.5729" x2="1155.5729" y1="1308.9143" y2="1328.9143"/><polygon fill="#181818" points="1151.5729,1318.9143,1155.5729,1328.9143,1159.5729,1318.9143,1155.5729,1322.9143" style="stroke:#181818;stroke-width:1;"/><line style="stroke:#181818;stroke-width:1;" x1="1843.5351" x2="1843.5351" y1="727.411" y2="747.411"/><polygon fill="#181818" points="1839.5351,737.411,1843.5351,747.411,1847.5351,737.411,1843.5351,741.411" style="stroke:#181818;stroke-width:1;"/><line style="stroke:#181818;stroke-width:1;" x1="1843.5351" x2="1843.5351" y1="800.0989" y2="820.0989"/><polygon fill="#181818" points="1839.5351,810.0989,1843.5351,820.0989,1847.5351,810.0989,1843.5351,814.0989" style="stroke:#181818;stroke-width:1;"/><line style="stroke:#181818;stroke-width:1;" x1="1843.5351" x2="1843.5351" y1="872.7868" y2="892.7868"/><polygon fill="#181818" points="1839.5351,882.7868,1843.5351,892.7868,1847.5351,882.7868,1843.5351,886.7868" style="stroke:#181818;stroke-width:1;"/><line style="stroke:#181818;stroke-width:1;" x1="1843.5351" x2="1843.5351" y1="945.4747" y2="965.4747"/><polygon fill="#181818" points="1839.5351,955.4747,1843.5351,965.4747,1847.5351,955.4747,1843.5351,959.4747" style="stroke:#181818;stroke-width:1;"/><line style="stroke:#181818;stroke-width:1;" x1="420.8709" x2="420.8709" y1="218.5957" y2="223.5957"/><line style="stroke:#181818;stroke-width:1;" x1="420.8709" x2="1155.5729" y1="223.5957" y2="223.5957"/><line style="stroke:#181818;stroke-width:1;" x1="1155.5729" x2="1155.5729" y1="223.5957" y2="238.5957"/><polygon fill="#181818" points="1151.5729,228.5957,1155.5729,238.5957,1159.5729,228.5957,1155.5729,232.5957" style="stroke:#181818;stroke-width:1;"/><line style="stroke:#181818;stroke-width:1;" x1="1155.5729" x2="1155.5729" y1="291.2836" y2="296.2836"/><line style="stroke:#181818;stroke-width:1;" x1="1155.5729" x2="420.8709" y1="296.2836" y2="296.2836"/><line style="stroke:#181818;stroke-width:1;" x1="420.8709" x2="420.8709" y1="296.2836" y2="311.2836"/><polygon fill="#181818" points="416.8709,301.2836,420.8709,311.2836,424.8709,301.2836,420.8709,305.2836" style="stroke:#181818;stroke-width:1;"/><line style="stroke:#181818;stroke-width:1;" x1="420.8709" x2="420.8709" y1="509.3473" y2="514.3473"/><line style="stroke:#181818;stroke-width:1;" x1="420.8709" x2="1155.5729" y1="514.3473" y2="514.3473"/><line style="stroke:#181818;stroke-width:1;" x1="1155.5729" x2="1155.5729" y1="514.3473" y2="529.3473"/><polygon fill="#181818" points="1151.5729,519.3473,1155.5729,529.3473,1159.5729,519.3473,1155.5729,523.3473" style="stroke:#181818;stroke-width:1;"/><line style="stroke:#181818;stroke-width:1;" x1="1155.5729" x2="1155.5729" y1="654.7231" y2="659.7231"/><line style="stroke:#181818;stroke-width:1;" x1="1155.5729" x2="1843.5351" y1="659.7231" y2="659.7231"/><line style="stroke:#181818;stroke-width:1;" x1="1843.5351" x2="1843.5351" y1="659.7231" y2="674.7231"/><polygon fill="#181818" points="1839.5351,664.7231,1843.5351,674.7231,1847.5351,664.7231,1843.5351,668.7231" style="stroke:#181818;stroke-width:1;"/><line style="stroke:#181818;stroke-width:1;" x1="1843.5351" x2="1843.5351" y1="1018.1626" y2="1023.1626"/><line style="stroke:#181818;stroke-width:1;" x1="1843.5351" x2="420.8709" y1="1023.1626" y2="1023.1626"/><line style="stroke:#181818;stroke-width:1;" x1="420.8709" x2="420.8709" y1="1023.1626" y2="1038.1626"/><polygon fill="#181818" points="416.8709,1028.1626,420.8709,1038.1626,424.8709,1028.1626,420.8709,1032.1626" style="stroke:#181818;stroke-width:1;"/><line style="stroke:#181818;stroke-width:1;" x1="420.8709" x2="420.8709" y1="1236.2264" y2="1241.2264"/><line style="stroke:#181818;stroke-width:1;" x1="420.8709" x2="1155.5729" y1="1241.2264" y2="1241.2264"/><line style="stroke:#181818;stroke-width:1;" x1="1155.5729" x2="1155.5729" y1="1241.2264" y2="1256.2264"/><polygon fill="#181818" points="1151.5729,1246.2264,1155.5729,1256.2264,1159.5729,1246.2264,1155.5729,1250.2264" style="stroke:#181818;stroke-width:1;"/><text fill="#000000" font-family="'kanit'" font-size="24" lengthAdjust="spacing" textLength="52.4879" x="257.7854" y="41.1879">User</text><text fill="#000000" font-family="'kanit'" font-size="24" lengthAdjust="spacing" textLength="125.1596" x="875.7637" y="41.1879">Unit admin</text><text fill="#000000" font-family="'kanit'" font-size="24" lengthAdjust="spacing" textLength="181.2475" x="1555.3199" y="41.1879">Prov/Dev admin</text><!--SRC=[hLJ1Qjj05BphAvRaQbeeELadbxIz5KCGFI_9cWhBaYkj0oqwD6t0BkHGQ4Bgj8Gu8GHK37MJaDNVxATaTvxaoh8JUYZeiDgTcNrltaX9rm_xFEOzjYawV138br4eN_EUO6jT7lfopKbM8RRy3u8zst3IzLOe_NS3yUQjBqNgfLuYOYUHF9PEKwizhIwqccBnIUTVi9vebMjrgVFFMeq1-AtLYNbS9uoaO87eo2R3iTdTr-hQWWhoi65EzWYlrO-Idk7LxF_1pZUT7zZxBmr1gsCBoJy2SglLkRdMDPLlTTy_3mOYRQMUQPJndPuVMj8KPIaKEjFgIAkRYlHZabxgDBr-4F4T1coE2iz0FNMjzYd49dQH7q20pCb8_hyxO6_8q8zX_a8_LrYC8KVO6QWqgA5fevNMcJzjBvP0k1j849cqHj0zhm3cbInVK7hKyGFXiahB3tLimwEcZNziku4jcjn51Jg2wb5fmWZD7JyfA_ng8j7cWNWL2n6cxRGTHxjFDyNkts2G7b4pL7QoF49auzOwOgiT8zRafadENGc-WaVV4PvQjCPudIn6OV5CgqDuGvPFIBVn28Yz2CIsZAFGtqvi9_DlJk5yHbOKTTVhM8fjnLwSPc0D5spFz-4ynMGUd_f8Ysy6wCC2KQIbTaUjjNgewlZIUupb6lOJjveCQAxu2z47i7BS3ykvvgyNzUy1]--></g></svg>