<svg xmlns="http://www.w3.org/2000/svg" xmlns:xlink="http://www.w3.org/1999/xlink" contentStyleType="text/css" data-diagram-type="ACTIVITY" height="571px" preserveAspectRatio="none" style="width:419px;height:571px;background:#FFFFFF;" version="1.1" viewBox="0 0 419 571" width="419px" zoomAndPan="magnify"><defs/><g><ellipse cx="208.3121" cy="20" fill="#222222" rx="10" ry="10" style="stroke:#222222;stroke-width:1;"/><rect fill="#F1F1F1" height="36.3441" rx="12.5" ry="12.5" style="stroke:#181818;stroke-width:0.5;" width="141.9209" x="137.3516" y="50"/><text fill="#000000" font-family="'kanit'" font-size="12" lengthAdjust="spacing" textLength="121.9209" x="147.3516" y="72.8281">&#3648;&#3586;&#3657;&#3634;&#3621;&#3591;&#3607;&#3632;&#3648;&#3610;&#3637;&#3618;&#3609;&#3592;&#3634;&#3585;&#3594;&#3656;&#3629;&#3591;&#3607;&#3634;&#3591;</text><rect fill="#F1F1F1" height="36.3441" rx="12.5" ry="12.5" style="stroke:#181818;stroke-width:0.5;" width="135.8609" x="140.3816" y="106.3441"/><text fill="#000000" font-family="'kanit'" font-size="12" lengthAdjust="spacing" textLength="115.8609" x="150.3816" y="129.1722">&#3585;&#3619;&#3629;&#3585;&#3586;&#3657;&#3629;&#3617;&#3641;&#3621;&#3605;&#3634;&#3617;&#3607;&#3637;&#3656;&#3585;&#3635;&#3627;&#3609;&#3604;</text><rect fill="#F1F1F1" height="36.3441" rx="12.5" ry="12.5" style="stroke:#181818;stroke-width:0.5;" width="141.3689" x="137.6276" y="162.6882"/><text fill="#000000" font-family="'kanit'" font-size="12" lengthAdjust="spacing" textLength="121.3689" x="147.6276" y="185.5163">&#3588;&#3621;&#3636;&#3585; &#3618;&#3639;&#3609;&#3618;&#3633;&#3609;&#3585;&#3634;&#3619;&#3621;&#3591;&#3607;&#3632;&#3648;&#3610;&#3637;&#3618;&#3609;</text><polygon fill="#F1F1F1" points="185.4267,219.0323,231.1974,219.0323,243.1974,231.0323,231.1974,243.0323,185.4267,243.0323,173.4267,231.0323,185.4267,219.0323" style="stroke:#181818;stroke-width:0.5;"/><text fill="#000000" font-family="'kanit'" font-size="11" lengthAdjust="spacing" textLength="45.7707" x="185.4267" y="235.3003">&#3621;&#3591;&#3607;&#3632;&#3648;&#3610;&#3637;&#3618;&#3609;</text><rect fill="#F1F1F1" height="36.3441" rx="12.5" ry="12.5" style="stroke:#181818;stroke-width:0.5;" width="119.7807" x="11" y="282.9961"/><text fill="#000000" font-family="'kanit'" font-size="12" lengthAdjust="spacing" textLength="99.7807" x="21" y="305.8242">&#3618;&#3585;&#3648;&#3621;&#3636;&#3585;&#3585;&#3634;&#3619;&#3621;&#3591;&#3607;&#3632;&#3648;&#3610;&#3637;&#3618;&#3609;</text><ellipse cx="70.8904" cy="350.3402" fill="none" rx="11" ry="11" style="stroke:#222222;stroke-width:1;"/><ellipse cx="70.8904" cy="350.3402" fill="#222222" rx="6" ry="6" style="stroke:#222222;stroke-width:1;"/><rect fill="#F1F1F1" height="36.3441" rx="12.5" ry="12.5" style="stroke:#181818;stroke-width:0.5;" width="82.9645" x="150.7807" y="282.9961"/><text fill="#000000" font-family="'kanit'" font-size="12" lengthAdjust="spacing" textLength="62.9645" x="160.7807" y="305.8242">&#3604;&#3635;&#3648;&#3609;&#3636;&#3609;&#3585;&#3634;&#3619;&#3605;&#3656;&#3629;</text><polygon fill="#F1F1F1" points="316.3048,282.9961,328.3048,294.9961,316.3048,306.9961,304.3048,294.9961,316.3048,282.9961" style="stroke:#181818;stroke-width:0.5;"/><polygon fill="#F1F1F1" points="292.5175,381.3402,340.0921,381.3402,352.0921,393.3402,340.0921,405.3402,292.5175,405.3402,280.5175,393.3402,292.5175,381.3402" style="stroke:#181818;stroke-width:0.5;"/><text fill="#000000" font-family="'kanit'" font-size="11" lengthAdjust="spacing" textLength="47.5746" x="292.5175" y="397.6082">&#3649;&#3585;&#3657;&#3652;&#3586;&#3586;&#3657;&#3629;&#3617;&#3641;&#3621;</text><text fill="#000000" font-family="'kanit'" font-size="11" lengthAdjust="spacing" textLength="54.9776" x="352.0921" y="390.1173">&#3618;&#3633;&#3591;&#3652;&#3617;&#3656;&#3606;&#3641;&#3585;&#3605;&#3657;&#3629;&#3591;</text><polygon fill="#F1F1F1" points="208.3121,440.3221,208.3121,440.3221,220.3121,452.3221,208.3121,464.3221,208.3121,464.3221,196.3121,452.3221,208.3121,440.3221" style="stroke:#181818;stroke-width:0.5;"/><rect fill="#F1F1F1" height="36.3441" rx="12.5" ry="12.5" style="stroke:#181818;stroke-width:0.5;" width="97.4485" x="159.5878" y="484.3221"/><text fill="#000000" font-family="'kanit'" font-size="12" lengthAdjust="spacing" textLength="77.4485" x="169.5878" y="507.1502">&#3621;&#3591;&#3607;&#3632;&#3648;&#3610;&#3637;&#3618;&#3609;&#3626;&#3635;&#3648;&#3619;&#3655;&#3592;</text><ellipse cx="208.3121" cy="550.6662" fill="none" rx="10" ry="10" style="stroke:#222222;stroke-width:1.5;"/><line style="stroke:#222222;stroke-width:2.5;" x1="202.1249" x2="214.4993" y1="544.4791" y2="556.8534"/><line style="stroke:#222222;stroke-width:2.5;" x1="214.4993" x2="202.1249" y1="544.4791" y2="556.8534"/><line style="stroke:#181818;stroke-width:1;" x1="208.3121" x2="208.3121" y1="30" y2="50"/><polygon fill="#181818" points="204.3121,40,208.3121,50,212.3121,40,208.3121,44" style="stroke:#181818;stroke-width:1;"/><line style="stroke:#181818;stroke-width:1;" x1="208.3121" x2="208.3121" y1="86.3441" y2="106.3441"/><polygon fill="#181818" points="204.3121,96.3441,208.3121,106.3441,212.3121,96.3441,208.3121,100.3441" style="stroke:#181818;stroke-width:1;"/><line style="stroke:#181818;stroke-width:1;" x1="208.3121" x2="208.3121" y1="142.6882" y2="162.6882"/><polygon fill="#181818" points="204.3121,152.6882,208.3121,162.6882,212.3121,152.6882,208.3121,156.6882" style="stroke:#181818;stroke-width:1;"/><line style="stroke:#181818;stroke-width:1;" x1="70.8904" x2="70.8904" y1="319.3402" y2="339.3402"/><polygon fill="#181818" points="66.8904,329.3402,70.8904,339.3402,74.8904,329.3402,70.8904,333.3402" style="stroke:#181818;stroke-width:1;"/><line style="stroke:#181818;stroke-width:1;" x1="316.3048" x2="316.3048" y1="306.9961" y2="381.3402"/><polygon fill="#181818" points="312.3048,371.3402,316.3048,381.3402,320.3048,371.3402,316.3048,375.3402" style="stroke:#181818;stroke-width:1;"/><line style="stroke:#181818;stroke-width:1;" x1="352.0921" x2="364.0921" y1="393.3402" y2="393.3402"/><polygon fill="#181818" points="360.0921,349.9961,364.0921,339.9961,368.0921,349.9961,364.0921,345.9961" style="stroke:#181818;stroke-width:1;"/><line style="stroke:#181818;stroke-width:1;" x1="364.0921" x2="364.0921" y1="294.9961" y2="393.3402"/><line style="stroke:#181818;stroke-width:1;" x1="364.0921" x2="328.3048" y1="294.9961" y2="294.9961"/><polygon fill="#181818" points="338.3048,290.9961,328.3048,294.9961,338.3048,298.9961,334.3048,294.9961" style="stroke:#181818;stroke-width:1;"/><line style="stroke:#181818;stroke-width:1;" x1="173.4267" x2="70.8904" y1="231.0323" y2="231.0323"/><line style="stroke:#181818;stroke-width:1;" x1="70.8904" x2="70.8904" y1="231.0323" y2="282.9961"/><polygon fill="#181818" points="66.8904,272.9961,70.8904,282.9961,74.8904,272.9961,70.8904,276.9961" style="stroke:#181818;stroke-width:1;"/><text fill="#000000" font-family="'kanit'" font-size="11" lengthAdjust="spacing" textLength="56.3526" x="70.8904" y="261.2822">&#3621;&#3591;&#3607;&#3632;&#3648;&#3610;&#3637;&#3618;&#3609;&#3595;&#3657;&#3635;</text><line style="stroke:#181818;stroke-width:1;" x1="243.1974" x2="316.3048" y1="231.0323" y2="231.0323"/><line style="stroke:#181818;stroke-width:1;" x1="316.3048" x2="316.3048" y1="231.0323" y2="282.9961"/><polygon fill="#181818" points="312.3048,272.9961,316.3048,282.9961,320.3048,272.9961,316.3048,276.9961" style="stroke:#181818;stroke-width:1;"/><text fill="#000000" font-family="'kanit'" font-size="11" lengthAdjust="spacing" textLength="89.3194" x="316.3048" y="261.2822">&#3585;&#3619;&#3629;&#3585;&#3586;&#3657;&#3629;&#3617;&#3641;&#3621;&#3612;&#3636;&#3604;&#3614;&#3621;&#3634;&#3604;</text><line style="stroke:#181818;stroke-width:1;" x1="208.3121" x2="208.3121" y1="243.0323" y2="256.3536"/><line style="stroke:#181818;stroke-width:1;" x1="208.3121" x2="192.263" y1="256.3536" y2="256.3536"/><line style="stroke:#181818;stroke-width:1;" x1="192.263" x2="192.263" y1="256.3536" y2="282.9961"/><polygon fill="#181818" points="188.263,272.9961,192.263,282.9961,196.263,272.9961,192.263,276.9961" style="stroke:#181818;stroke-width:1;"/><text fill="#000000" font-family="'kanit'" font-size="11" lengthAdjust="spacing" textLength="68.2545" x="192.263" y="262.2822">&#3652;&#3617;&#3656;&#3617;&#3637;&#3586;&#3657;&#3629;&#3612;&#3636;&#3604;&#3614;&#3621;&#3634;&#3604;</text><line style="stroke:#181818;stroke-width:1;" x1="192.263" x2="192.263" y1="319.3402" y2="452.3221"/><line style="stroke:#181818;stroke-width:1;" x1="192.263" x2="196.3121" y1="452.3221" y2="452.3221"/><polygon fill="#181818" points="186.3121,448.3221,196.3121,452.3221,186.3121,456.3221,190.3121,452.3221" style="stroke:#181818;stroke-width:1;"/><line style="stroke:#181818;stroke-width:1;" x1="316.3048" x2="316.3048" y1="405.3402" y2="452.3221"/><line style="stroke:#181818;stroke-width:1;" x1="316.3048" x2="220.3121" y1="452.3221" y2="452.3221"/><polygon fill="#181818" points="230.3121,448.3221,220.3121,452.3221,230.3121,456.3221,226.3121,452.3221" style="stroke:#181818;stroke-width:1;"/><text fill="#000000" font-family="'kanit'" font-size="11" lengthAdjust="spacing" textLength="50.3796" x="220.3121" y="428.8221">&#3606;&#3641;&#3585;&#3605;&#3657;&#3629;&#3591;&#3649;&#3621;&#3657;&#3623;</text><line style="stroke:#181818;stroke-width:1;" x1="208.3121" x2="208.3121" y1="199.0323" y2="219.0323"/><polygon fill="#181818" points="204.3121,209.0323,208.3121,219.0323,212.3121,209.0323,208.3121,213.0323" style="stroke:#181818;stroke-width:1;"/><line style="stroke:#181818;stroke-width:1;" x1="208.3121" x2="208.3121" y1="464.3221" y2="484.3221"/><polygon fill="#181818" points="204.3121,474.3221,208.3121,484.3221,212.3121,474.3221,208.3121,478.3221" style="stroke:#181818;stroke-width:1;"/><line style="stroke:#181818;stroke-width:1;" x1="208.3121" x2="208.3121" y1="520.6662" y2="540.6662"/><polygon fill="#181818" points="204.3121,530.6662,208.3121,540.6662,212.3121,530.6662,208.3121,534.6662" style="stroke:#181818;stroke-width:1;"/><!--SRC=[ZL7DIiD04BxlKomzcOClOC2JUFGTbXffQ9k6PgLNKmgfUasLYWXfA88YgBKu-pRpADtzqfI29NZAPERRxsScwOPHh8QgBy-2AtNTq-U3I5-eVY1RNHM5kYKIhOPQdB2vOHgpkMNwPbeoPKoFJ9_eFp6jcHPCSwOf02dJ7HjRVzH8synyo-D69VffJMZhWic0TWPaWIThC5ZOYkaTv3aO9a3-s964wYzcjlX2aOAYR73fYsGKwdP77ZM0FD5MIT08ORf7W9NdR2sSj0DipVtJYHx4jPAPkEWkT074RZtFOCoPNi1bIND8vcutZd4Em7xuMRL-VvUYUUy75OP172WjjbyvweGzs4Gqo-3yZl-oUJ9Cd69raMmlrWC0ATnLJp9F79yU741cYTzNNmJHPNKp5xlX86_rHaes5ZFrXNkw0G00]--></g></svg>