<svg xmlns="http://www.w3.org/2000/svg" xmlns:xlink="http://www.w3.org/1999/xlink" contentStyleType="text/css" data-diagram-type="DESCRIPTION" height="557px" preserveAspectRatio="none" style="width:404px;height:557px;background:#FFFFFF;" version="1.1" viewBox="0 0 404 557" width="404px" zoomAndPan="magnify"><defs/><g><!--cluster Unit_Management--><g class="cluster" data-entity="Unit_Management" data-source-line="50" data-uid="ent0003" id="cluster_Unit_Management"><path d="M160.82,6.602 L291.4455,6.602 A3.75,3.75 0 0 1 293.9455,9.102 L300.9455,31.6699 L395.42,31.6699 A2.5,2.5 0 0 1 397.92,34.1699 L397.92,548.102 A2.5,2.5 0 0 1 395.42,550.602 L160.82,550.602 A2.5,2.5 0 0 1 158.32,548.102 L158.32,9.102 A2.5,2.5 0 0 1 160.82,6.602" fill="none" style="stroke:#000000;stroke-width:1.5;"/><line style="stroke:#000000;stroke-width:1.5;" x1="158.32" x2="300.9455" y1="31.6699" y2="31.6699"/><text fill="#000000" font-family="'kanit'" font-size="14" font-weight="bold" lengthAdjust="spacing" textLength="129.6255" x="162.32" y="23.5679">Unit_Management</text></g><!--entity UM1--><g class="entity" data-entity="UM1" data-source-line="51" data-uid="ent0004" id="entity_UM1"><ellipse cx="278.1189" cy="518.605" fill="#F1F1F1" rx="67.1089" ry="16.4831" style="stroke:#181818;stroke-width:0.5;"/><text fill="#000000" font-family="'kanit'" font-size="14" lengthAdjust="spacing" textLength="90.6636" x="232.7871" y="524.639">&#3648;&#3614;&#3636;&#3656;&#3617;&#3627;&#3609;&#3656;&#3623;&#3618;&#3610;&#3619;&#3636;&#3585;&#3634;&#3619;</text></g><!--entity UM2--><g class="entity" data-entity="UM2" data-source-line="52" data-uid="ent0005" id="entity_UM2"><ellipse cx="278.1164" cy="447.6033" fill="#F1F1F1" rx="83.1064" ry="19.0213" style="stroke:#181818;stroke-width:0.5;"/><text fill="#000000" font-family="'kanit'" font-size="14" lengthAdjust="spacing" textLength="128.7575" x="213.7376" y="453.6372">&#3649;&#3585;&#3657;&#3652;&#3586;&#3586;&#3657;&#3629;&#3617;&#3641;&#3621;&#3627;&#3609;&#3656;&#3623;&#3618;&#3610;&#3619;&#3636;&#3585;&#3634;&#3619;</text></g><!--entity UM3--><g class="entity" data-entity="UM3" data-source-line="53" data-uid="ent0006" id="entity_UM3"><ellipse cx="278.122" cy="376.605" fill="#F1F1F1" rx="62.862" ry="16.4831" style="stroke:#181818;stroke-width:0.5;"/><text fill="#000000" font-family="'kanit'" font-size="14" lengthAdjust="spacing" textLength="84.6577" x="235.7932" y="382.639">&#3621;&#3610;&#3627;&#3609;&#3656;&#3623;&#3618;&#3610;&#3619;&#3636;&#3585;&#3634;&#3619;</text></g><!--entity UM4--><g class="entity" data-entity="UM4" data-source-line="54" data-uid="ent0007" id="entity_UM4"><ellipse cx="278.1199" cy="301.602" fill="#F1F1F1" rx="103.7999" ry="23.16" style="stroke:#181818;stroke-width:0.5;"/><text fill="#000000" font-family="'kanit'" font-size="14" lengthAdjust="spacing" textLength="177.6313" x="189.3043" y="307.6359">&#3648;&#3614;&#3636;&#3656;&#3617;&#3621;&#3634;&#3618;&#3648;&#3595;&#3655;&#3609; Electronic &#3651;&#3609;&#3619;&#3632;&#3610;&#3610;</text></g><!--entity UM5--><g class="entity" data-entity="UM5" data-source-line="55" data-uid="ent0008" id="entity_UM5"><ellipse cx="278.1216" cy="221.6063" fill="#F1F1F1" rx="95.2216" ry="21.4443" style="stroke:#181818;stroke-width:0.5;"/><text fill="#000000" font-family="'kanit'" font-size="14" lengthAdjust="spacing" textLength="157.8914" x="199.176" y="227.6403">&#3648;&#3614;&#3636;&#3656;&#3617;&#3605;&#3619;&#3634;&#3611;&#3619;&#3632;&#3607;&#3633;&#3610;&#3586;&#3629;&#3591;&#3627;&#3609;&#3656;&#3623;&#3618;&#3591;&#3634;&#3609;</text></g><!--entity UM6--><g class="entity" data-entity="UM6" data-source-line="56" data-uid="ent0009" id="entity_UM6"><ellipse cx="278.1223" cy="144.6064" fill="#F1F1F1" rx="90.9223" ry="20.5845" style="stroke:#181818;stroke-width:0.5;"/><text fill="#000000" font-family="'kanit'" font-size="14" lengthAdjust="spacing" textLength="147.7554" x="204.2446" y="150.6404">&#3649;&#3585;&#3657;&#3652;&#3586;&#3621;&#3634;&#3618;&#3648;&#3595;&#3655;&#3609;&#3586;&#3629;&#3591;&#3627;&#3609;&#3656;&#3623;&#3618;&#3591;&#3634;&#3609;</text></g><!--entity UM7--><g class="entity" data-entity="UM7" data-source-line="57" data-uid="ent0010" id="entity_UM7"><ellipse cx="278.1203" cy="66.606" fill="#F1F1F1" rx="97.7203" ry="21.9441" style="stroke:#181818;stroke-width:0.5;"/><text fill="#000000" font-family="'kanit'" font-size="14" lengthAdjust="spacing" textLength="163.7014" x="196.2697" y="72.64">&#3649;&#3585;&#3657;&#3652;&#3586;&#3605;&#3619;&#3634;&#3611;&#3619;&#3632;&#3607;&#3633;&#3610;&#3586;&#3629;&#3591;&#3627;&#3609;&#3656;&#3623;&#3618;&#3591;&#3634;&#3609;</text></g><!--entity PDA--><g class="entity" data-entity="PDA" data-source-line="47" data-uid="ent0002" id="entity_PDA"><ellipse cx="60.1588" cy="278.072" fill="#F1F1F1" rx="16" ry="16" style="stroke:#181818;stroke-width:0.5;"/><path d="M60.1588,298.072 C64.1588,298.072 67.1588,298.072 71.1588,294.072 C79.1588,294.072 87.1588,302.072 87.1588,310.072 L87.1588,314.072 C87.1588,318.072 83.1588,322.072 79.1588,322.072 L41.1588,322.072 C37.1588,322.072 33.1588,318.072 33.1588,314.072 L33.1588,310.072 C33.1588,302.072 41.1588,294.072 49.1588,294.072 C53.1588,298.072 56.1588,298.072 60.1588,298.072" fill="#F1F1F1" style="stroke:#181818;stroke-width:0.5;"/><text fill="#000000" font-family="'kanit'" font-size="14" lengthAdjust="spacing" textLength="108.3176" x="6" y="337.5379">Prov/Dep Admin</text></g><!--link PDA to UM1--><g class="link" data-entity-1="PDA" data-entity-2="UM1" data-source-line="60" data-uid="lnk11" id="link_PDA_UM1"><path d="M70.32,341.992 C81.88,383.782 105.88,447.942 150.32,484.602 C168.43,499.542 186.6206,506.717 208.9206,511.447" fill="none" id="PDA-to-UM1" style="stroke:#181818;stroke-width:1;"/><polygon fill="#181818" points="214.79,512.692,206.8158,506.9116,209.8988,511.6545,205.1559,514.7375,214.79,512.692" style="stroke:#181818;stroke-width:1;"/></g><!--link PDA to UM2--><g class="link" data-entity-1="PDA" data-entity-2="UM2" data-source-line="61" data-uid="lnk12" id="link_PDA_UM2"><path d="M85.43,342.082 C101.23,365.232 123.81,393.062 150.32,410.602 C168.29,422.502 184.3789,429.0726 204.8589,434.6226" fill="none" id="PDA-to-UM2" style="stroke:#181818;stroke-width:1;"/><polygon fill="#181818" points="210.65,436.192,203.0096,429.9772,205.8241,434.8842,200.9171,437.6987,210.65,436.192" style="stroke:#181818;stroke-width:1;"/></g><!--link PDA to UM3--><g class="link" data-entity-1="PDA" data-entity-2="UM3" data-source-line="62" data-uid="lnk13" id="link_PDA_UM3"><path d="M114.77,328.022 C126.34,333.232 138.62,338.382 150.32,342.602 C175.93,351.852 199.4453,358.4322 223.4353,364.3622" fill="none" id="PDA-to-UM3" style="stroke:#181818;stroke-width:1;"/><polygon fill="#181818" points="229.26,365.802,221.4828,359.7592,224.4061,364.6022,219.5631,367.5254,229.26,365.802" style="stroke:#181818;stroke-width:1;"/></g><!--link PDA to UM4--><g class="link" data-entity-1="PDA" data-entity-2="UM4" data-source-line="63" data-uid="lnk14" id="link_PDA_UM4"><path d="M114.54,301.602 C132.65,301.602 147.55,301.602 168.19,301.602" fill="none" id="PDA-to-UM4" style="stroke:#181818;stroke-width:1;"/><polygon fill="#181818" points="174.19,301.602,165.19,297.602,169.19,301.602,165.19,305.602,174.19,301.602" style="stroke:#181818;stroke-width:1;"/></g><!--link PDA to UM5--><g class="link" data-entity-1="PDA" data-entity-2="UM5" data-source-line="64" data-uid="lnk15" id="link_PDA_UM5"><path d="M114.42,275.722 C126.12,270.422 138.54,265.102 150.32,260.602 C171.73,252.432 189.9027,246.4348 211.1527,240.0648" fill="none" id="PDA-to-UM5" style="stroke:#181818;stroke-width:1;"/><polygon fill="#181818" points="216.9,238.342,207.1304,237.0947,212.1106,239.7777,209.4276,244.7578,216.9,238.342" style="stroke:#181818;stroke-width:1;"/></g><!--link PDA to UM6--><g class="link" data-entity-1="PDA" data-entity-2="UM6" data-source-line="65" data-uid="lnk16" id="link_PDA_UM6"><path d="M82.42,261.202 C97.99,235.262 121.42,202.772 150.32,182.602 C166.71,171.152 180.856,164.8023 199.976,159.1523" fill="none" id="PDA-to-UM6" style="stroke:#181818;stroke-width:1;"/><polygon fill="#181818" points="205.73,157.452,195.9654,156.1665,200.935,158.8689,198.2325,163.8385,205.73,157.452" style="stroke:#181818;stroke-width:1;"/></g><!--link PDA to UM7--><g class="link" data-entity-1="PDA" data-entity-2="UM7" data-source-line="66" data-uid="lnk17" id="link_PDA_UM7"><path d="M69.3,261.422 C80.27,217.362 104.01,147.522 150.32,106.602 C164.15,94.372 176.0405,87.7871 193.6605,81.8871" fill="none" id="PDA-to-UM7" style="stroke:#181818;stroke-width:1;"/><polygon fill="#181818" points="199.35,79.982,189.5457,79.0466,194.6087,81.5696,192.0858,86.6327,199.35,79.982" style="stroke:#181818;stroke-width:1;"/></g><!--SRC=[lLPDJzj04BtxLwouj3tG4ZiVa4Cb4zeR5QLohiXo3BL8xDHsYgggKg6L0Yg7IeNIX0eL48eK5AdGLbt_c_qftPtrsXjYIle1KWvlrpDlPsVUx2HOTTocwPiDP5gXvpy9NzHjPAxPWTUmbI3vE6Slcwrw-D1pmqTcmqOJgwRhX1DAtLuEKUWXtrbv6gAQuzjMw7YkKZRePwJN6evRHcQ039rk1RRF5qfvmVUUtvkpcvB9mfokt49bWhi4OuBVmk-4u3s2pqYqIN2FH7HddnihIjEqLiqL6ysQWMCj6G73BnM4ReDN6no_akWr4FuW-8ZW3Y9udU1ZWWSCi6y0S9_WSxf_Xr7Fve24VTmWqHPyeTyZYE6OSJB2BhTL-O43GRG9vkkZXfhoAWrPjoolvOPBywPBbmtR3KNabAK3rpzajyQx17y7kdDWlFHUS8QU1dx0_5YyXpp1I0Iq0xHTaOEsuAJ7dNCIDKbXb_loROrphqFUjg0I6o910_2FmAaVbufTOnSEwt62F4k0OkXeSl8-ovj0ca0qV87or9BAGPWcK4kWdkxgqYvrDD1agycCSobKKwWb44vnxRKcBO6azF_Q1bJFeut0Dcah1DVG2-omKLKDAuBWKrQTk4n7GWsfpg1Undnkp8gFnoR9QbmNBJFu4x0vWlrt96gphdvGf_dsFTUn48dUWFOkz9yndyzasmLBIhWlNFP4Xso83haGRHliEp5j8JDB6K6EIrZC9FpdE4ki_KIViEAcM9Mm9k6yX0iIBagu9FNGTJNH3SwIYkdNbXRjPoqxuCt3Yc4qwvvPeq_e5yWebSz7u80Aiyfqn2HfGx8hiTP1Pqna1oJQ7Xqs4DCtNZ_kfycdZM6V7_ESH3DzI4WoJZvGUyvKkEBagncAGvdgYkbr32EHYd_lBYpexdlkaClidEoHN2dnctB27d3smR1xcSSqz-YBWhV7F6acUIQeN7uAanwa-1FCsmlJk0FBm_XIKvUvd_4iC0OMJiQSZnboMKKTIkZlIE2M9_16zs92TQWoVQOX5X-FE-MDhRKaqsV0qeOZJy6iZnuleefNisFRUAJ3Kr1H1T2IhKA2IW9G7u4q_cy0PZ6LSegB4Yv9c2g6lppnScfebHjQgV9gMbxCA3VmP6NEVVdHeWQNF5j_-MXL7NjD_8dSWT4iIsOGYoNYZ1HiKory5izOHmmF-BVBrD63eSLdPpNt1xGoAvEB9UHILPbQUF6hEG5edMBm2m00]--></g></svg>