<svg xmlns="http://www.w3.org/2000/svg" xmlns:xlink="http://www.w3.org/1999/xlink" contentStyleType="text/css" data-diagram-type="DESCRIPTION" height="1020px" preserveAspectRatio="none" style="width:490px;height:1020px;background:#FFFFFF;" version="1.1" viewBox="0 0 490 1020" width="490px" zoomAndPan="magnify"><defs/><g><!--cluster Card_Request--><g class="cluster" data-entity="Card_Request" data-source-line="79" data-uid="ent0005" id="cluster_Card_Request"><path d="M107,6.602 L203.2276,6.602 A3.75,3.75 0 0 1 205.7276,9.102 L212.7276,31.6699 L328.2,31.6699 A2.5,2.5 0 0 1 330.7,34.1699 L330.7,1011.102 A2.5,2.5 0 0 1 328.2,1013.602 L107,1013.602 A2.5,2.5 0 0 1 104.5,1011.102 L104.5,9.102 A2.5,2.5 0 0 1 107,6.602" fill="none" style="stroke:#000000;stroke-width:1.5;"/><line style="stroke:#000000;stroke-width:1.5;" x1="104.5" x2="212.7276" y1="31.6699" y2="31.6699"/><text fill="#000000" font-family="'kanit'" font-size="14" font-weight="bold" lengthAdjust="spacing" textLength="95.2276" x="108.5" y="23.5679">Card_Request</text></g><!--entity C2--><g class="entity" data-entity="C2" data-source-line="81" data-uid="ent0006" id="entity_C2"><ellipse cx="217.6049" cy="63.607" fill="#F1F1F1" rx="85.4249" ry="19.485" style="stroke:#181818;stroke-width:0.5;"/><text fill="#000000" font-family="'kanit'" font-size="14" lengthAdjust="spacing" textLength="134.4835" x="150.3631" y="69.6409">Upload &#3616;&#3634;&#3614;&#3606;&#3656;&#3634;&#3618;&#3605;&#3609;&#3648;&#3629;&#3591;</text></g><!--entity C3--><g class="entity" data-entity="C3" data-source-line="82" data-uid="ent0007" id="entity_C3"><ellipse cx="217.6047" cy="554.6049" fill="#F1F1F1" rx="71.7647" ry="16.7529" style="stroke:#181818;stroke-width:0.5;"/><text fill="#000000" font-family="'kanit'" font-size="14" lengthAdjust="spacing" textLength="99.1196" x="168.0449" y="560.6389">&#3614;&#3636;&#3617;&#3614;&#3660;&#3648;&#3629;&#3585;&#3626;&#3634;&#3619;&#3588;&#3635;&#3586;&#3629;</text></g><!--entity C4--><g class="entity" data-entity="C4" data-source-line="83" data-uid="ent0008" id="entity_C4"><ellipse cx="217.604" cy="900.6028" fill="#F1F1F1" rx="80.454" ry="18.4908" style="stroke:#181818;stroke-width:0.5;"/><text fill="#000000" font-family="'kanit'" font-size="14" lengthAdjust="spacing" textLength="122.0935" x="156.5572" y="906.6367">Upload &#3648;&#3629;&#3585;&#3626;&#3634;&#3619;&#3588;&#3635;&#3586;&#3629;</text></g><!--entity C5--><g class="entity" data-entity="C5" data-source-line="84" data-uid="ent0009" id="entity_C5"><ellipse cx="217.595" cy="343.601" fill="#F1F1F1" rx="87.395" ry="19.879" style="stroke:#181818;stroke-width:0.5;"/><text fill="#000000" font-family="'kanit'" font-size="14" lengthAdjust="spacing" textLength="139.2854" x="147.9523" y="349.6349">&#3614;&#3636;&#3617;&#3614;&#3660;&#3648;&#3629;&#3585;&#3626;&#3634;&#3619;&#3611;&#3619;&#3632;&#3626;&#3610;&#3585;&#3634;&#3619;&#3603;&#3660;</text></g><!--entity C6--><g class="entity" data-entity="C6" data-source-line="85" data-uid="ent0010" id="entity_C6"><ellipse cx="217.598" cy="975.6016" fill="#F1F1F1" rx="97.098" ry="21.8196" style="stroke:#181818;stroke-width:0.5;"/><text fill="#000000" font-family="'kanit'" font-size="14" lengthAdjust="spacing" textLength="162.2594" x="136.4683" y="981.6355">Upload &#3648;&#3629;&#3585;&#3626;&#3634;&#3619;&#3611;&#3619;&#3632;&#3626;&#3610;&#3585;&#3634;&#3619;&#3603;&#3660;</text></g><!--entity C15--><g class="entity" data-entity="C15" data-source-line="86" data-uid="ent0011" id="entity_C15"><ellipse cx="217.5988" cy="760.6037" fill="#F1F1F1" rx="78.8588" ry="18.1718" style="stroke:#181818;stroke-width:0.5;"/><text fill="#000000" font-family="'kanit'" font-size="14" lengthAdjust="spacing" textLength="118.0195" x="158.5891" y="766.6377">Upload &#3610;&#3633;&#3605;&#3619;&#3592;&#3609;&#3607;.&#3619;&#3633;&#3600;</text></g><!--entity C7--><g class="entity" data-entity="C7" data-source-line="87" data-uid="ent0012" id="entity_C7"><ellipse cx="217.6019" cy="830.605" fill="#F1F1F1" rx="52.0419" ry="16.4831" style="stroke:#181818;stroke-width:0.5;"/><text fill="#000000" font-family="'kanit'" font-size="14" lengthAdjust="spacing" textLength="69.3557" x="182.924" y="836.639">&#3649;&#3585;&#3657;&#3652;&#3586;&#3648;&#3629;&#3585;&#3626;&#3634;&#3619;</text></g><!--entity C8--><g class="entity" data-entity="C8" data-source-line="88" data-uid="ent0013" id="entity_C8"><ellipse cx="217.5992" cy="486.5978" fill="#F1F1F1" rx="70.5292" ry="16.5058" style="stroke:#181818;stroke-width:0.5;"/><text fill="#000000" font-family="'kanit'" font-size="14" lengthAdjust="spacing" textLength="95.6616" x="169.7684" y="492.6318">&#3605;&#3619;&#3623;&#3592;&#3626;&#3629;&#3610;&#3648;&#3629;&#3585;&#3626;&#3634;&#3619;</text></g><!--entity C9--><g class="entity" data-entity="C9" data-source-line="89" data-uid="ent0014" id="entity_C9"><ellipse cx="217.6004" cy="622.605" fill="#F1F1F1" rx="63.0204" ry="16.4831" style="stroke:#181818;stroke-width:0.5;"/><text fill="#000000" font-family="'kanit'" font-size="14" lengthAdjust="spacing" textLength="84.8817" x="175.1596" y="628.639">&#3626;&#3633;&#3656;&#3591;&#3649;&#3585;&#3657;&#3652;&#3586;&#3648;&#3629;&#3585;&#3626;&#3634;&#3619;</text></g><!--entity C10--><g class="entity" data-entity="C10" data-source-line="90" data-uid="ent0015" id="entity_C10"><ellipse cx="217.5991" cy="690.5998" fill="#F1F1F1" rx="72.9391" ry="16.9878" style="stroke:#181818;stroke-width:0.5;"/><text fill="#000000" font-family="'kanit'" font-size="14" lengthAdjust="spacing" textLength="102.3536" x="166.4223" y="696.6338">&#3648;&#3621;&#3639;&#3629;&#3585;&#3623;&#3636;&#3608;&#3637;&#3585;&#3634;&#3619;&#3621;&#3591;&#3609;&#3634;&#3617;</text></g><!--entity C11--><g class="entity" data-entity="C11" data-source-line="91" data-uid="ent0016" id="entity_C11"><ellipse cx="217.5975" cy="134.605" fill="#F1F1F1" rx="64.2875" ry="16.4831" style="stroke:#181818;stroke-width:0.5;"/><text fill="#000000" font-family="'kanit'" font-size="14" lengthAdjust="spacing" textLength="86.6737" x="174.2607" y="140.639">&#3648;&#3621;&#3639;&#3629;&#3585;&#3623;&#3633;&#3609;&#3607;&#3637;&#3656;&#3629;&#3609;&#3640;&#3617;&#3633;&#3605;&#3636;</text></g><!--entity C12--><g class="entity" data-entity="C12" data-source-line="92" data-uid="ent0017" id="entity_C12"><ellipse cx="217.6045" cy="416.6009" fill="#F1F1F1" rx="78.7445" ry="18.1489" style="stroke:#181818;stroke-width:0.5;"/><text fill="#000000" font-family="'kanit'" font-size="14" lengthAdjust="spacing" textLength="117.7255" x="158.7418" y="422.6348">&#3614;&#3636;&#3617;&#3614;&#3660;&#3610;&#3633;&#3605;&#3619;&#3607;&#3637;&#3656;&#3629;&#3609;&#3640;&#3617;&#3633;&#3605;&#3636;&#3649;&#3621;&#3657;&#3623;</text></g><!--entity C13--><g class="entity" data-entity="C13" data-source-line="93" data-uid="ent0018" id="entity_C13"><ellipse cx="217.6022" cy="271.6064" fill="#F1F1F1" rx="74.7722" ry="17.3544" style="stroke:#181818;stroke-width:0.5;"/><text fill="#000000" font-family="'kanit'" font-size="14" lengthAdjust="spacing" textLength="107.3096" x="163.9474" y="277.6404">Upload &#3626;&#3635;&#3648;&#3609;&#3634;&#3610;&#3633;&#3605;&#3619;</text></g><!--entity C14--><g class="entity" data-entity="C14" data-source-line="94" data-uid="ent0019" id="entity_C14"><ellipse cx="217.6043" cy="202.6048" fill="#F1F1F1" rx="72.1643" ry="16.8329" style="stroke:#181818;stroke-width:0.5;"/><text fill="#000000" font-family="'kanit'" font-size="14" lengthAdjust="spacing" textLength="100.2256" x="167.4915" y="208.6388">&#3605;&#3633;&#3657;&#3591;&#3619;&#3627;&#3633;&#3626; QR Code</text></g><!--entity UA--><g class="entity" data-entity="UA" data-source-line="74" data-uid="ent0002" id="entity_UA"><ellipse cx="428.8509" cy="842.072" fill="#F1F1F1" rx="16" ry="16" style="stroke:#181818;stroke-width:0.5;"/><path d="M428.8509,862.072 C432.8509,862.072 435.8509,862.072 439.8509,858.072 C447.8509,858.072 455.8509,866.072 455.8509,874.072 L455.8509,878.072 C455.8509,882.072 451.8509,886.072 447.8509,886.072 L409.8509,886.072 C405.8509,886.072 401.8509,882.072 401.8509,878.072 L401.8509,874.072 C401.8509,866.072 409.8509,858.072 417.8509,858.072 C421.8509,862.072 424.8509,862.072 428.8509,862.072" fill="#F1F1F1" style="stroke:#181818;stroke-width:0.5;"/><text fill="#000000" font-family="'kanit'" font-size="14" lengthAdjust="spacing" textLength="74.1017" x="391.8" y="901.5379">Unit Admin</text></g><!--entity U--><g class="entity" data-entity="U" data-source-line="75" data-uid="ent0003" id="entity_U"><ellipse cx="33" cy="284.072" fill="#F1F1F1" rx="16" ry="16" style="stroke:#181818;stroke-width:0.5;"/><path d="M33,304.072 C37,304.072 40,304.072 44,300.072 C52,300.072 60,308.072 60,316.072 L60,320.072 C60,324.072 56,328.072 52,328.072 L14,328.072 C10,328.072 6,324.072 6,320.072 L6,316.072 C6,308.072 14,300.072 22,300.072 C26,304.072 29,304.072 33,304.072" fill="#F1F1F1" style="stroke:#181818;stroke-width:0.5;"/><text fill="#000000" font-family="'kanit'" font-size="14" lengthAdjust="spacing" textLength="30.6179" x="17.6911" y="343.5379">User</text></g><!--entity PDA--><g class="entity" data-entity="PDA" data-source-line="76" data-uid="ent0004" id="entity_PDA"><ellipse cx="428.8588" cy="463.072" fill="#F1F1F1" rx="16" ry="16" style="stroke:#181818;stroke-width:0.5;"/><path d="M428.8588,483.072 C432.8588,483.072 435.8588,483.072 439.8588,479.072 C447.8588,479.072 455.8588,487.072 455.8588,495.072 L455.8588,499.072 C455.8588,503.072 451.8588,507.072 447.8588,507.072 L409.8588,507.072 C405.8588,507.072 401.8588,503.072 401.8588,499.072 L401.8588,495.072 C401.8588,487.072 409.8588,479.072 417.8588,479.072 C421.8588,483.072 424.8588,483.072 428.8588,483.072" fill="#F1F1F1" style="stroke:#181818;stroke-width:0.5;"/><text fill="#000000" font-family="'kanit'" font-size="14" lengthAdjust="spacing" textLength="108.3176" x="374.7" y="522.5379">Prov/Dep Admin</text></g><!--link U to C2--><g class="link" data-entity-1="U" data-entity-2="C2" data-source-line="98" data-uid="lnk20" id="link_U_C2"><path d="M35.28,267.302 C38.93,220.942 51.9,145.452 96.5,100.602 C109.35,87.682 120.8681,81.0574 138.2681,75.5674" fill="none" id="U-to-C2" style="stroke:#181818;stroke-width:1;"/><polygon fill="#181818" points="143.99,73.762,134.2035,72.6554,139.2217,75.2665,136.6107,80.2847,143.99,73.762" style="stroke:#181818;stroke-width:1;"/></g><!--link U to C3--><g class="link" data-entity-1="U" data-entity-2="C3" data-source-line="99" data-uid="lnk21" id="link_U_C3"><path d="M34.66,347.952 C37.67,395.692 49.95,474.502 96.5,520.602 C110.97,534.932 125.1884,541.8796 144.7484,546.7596" fill="none" id="U-to-C3" style="stroke:#181818;stroke-width:1;"/><polygon fill="#181818" points="150.57,548.212,142.8059,542.1523,145.7187,547.0016,140.8694,549.9144,150.57,548.212" style="stroke:#181818;stroke-width:1;"/></g><!--link U to C5--><g class="link" data-entity-1="U" data-entity-2="C5" data-source-line="101" data-uid="lnk22" id="link_U_C5"><path d="M60.94,312.912 C84.45,317.552 113.6631,323.3125 144.5831,329.4025" fill="none" id="U-to-C5" style="stroke:#181818;stroke-width:1;"/><polygon fill="#181818" points="150.47,330.562,142.4126,324.8982,145.5642,329.5957,140.8667,332.7474,150.47,330.562" style="stroke:#181818;stroke-width:1;"/></g><!--link U to C7--><g class="link" data-entity-1="U" data-entity-2="C7" data-source-line="103" data-uid="lnk23" id="link_U_C7"><path d="M33.64,347.872 C33.53,452.532 38.83,729.642 96.5,796.602 C113.54,816.392 135.2161,824.1937 159.6661,827.8537" fill="none" id="U-to-C7" style="stroke:#181818;stroke-width:1;"/><polygon fill="#181818" points="165.6,828.742,157.2913,823.4537,160.6551,828.0018,156.107,831.3655,165.6,828.742" style="stroke:#181818;stroke-width:1;"/></g><!--link U to C14--><g class="link" data-entity-1="U" data-entity-2="C14" data-source-line="104" data-uid="lnk24" id="link_U_C14"><path d="M60.79,269.292 C70.79,257.342 83.02,245.092 96.5,236.602 C114.83,225.042 131.3496,218.7892 151.7596,213.6792" fill="none" id="U-to-C14" style="stroke:#181818;stroke-width:1;"/><polygon fill="#181818" points="157.58,212.222,147.878,210.5276,152.7297,213.4363,149.821,218.2881,157.58,212.222" style="stroke:#181818;stroke-width:1;"/></g><!--link U to C13--><g class="link" data-entity-1="U" data-entity-2="C13" data-source-line="105" data-uid="lnk25" id="link_U_C13"><path d="M60.94,302.292 C86.74,297.202 120.5833,290.5325 153.4533,284.0525" fill="none" id="U-to-C13" style="stroke:#181818;stroke-width:1;"/><polygon fill="#181818" points="159.34,282.892,149.7363,280.7083,154.4344,283.8591,151.2836,288.5572,159.34,282.892" style="stroke:#181818;stroke-width:1;"/></g><!--reverse link C4 to UA--><g class="link" data-entity-1="C4" data-entity-2="UA" data-source-line="107" data-uid="lnk27" id="link_C4_UA"><path d="M289.5778,888.7321 C325.0878,882.7921 361.82,876.652 391.48,871.682" fill="none" id="C4-backto-UA" style="stroke:#181818;stroke-width:1;"/><polygon fill="#181818" points="283.66,889.722,293.1966,892.1823,288.5915,888.8971,291.8767,884.2919,283.66,889.722" style="stroke:#181818;stroke-width:1;"/></g><!--reverse link C6 to UA--><g class="link" data-entity-1="C6" data-entity-2="UA" data-source-line="108" data-uid="lnk29" id="link_C6_UA"><path d="M289.0161,957.4382 C307.4761,951.5482 321.51,945.842 338.7,936.602 C357.34,926.582 375.98,912.532 391.36,899.572" fill="none" id="C6-backto-UA" style="stroke:#181818;stroke-width:1;"/><polygon fill="#181818" points="283.3,959.262,293.09,960.337,288.0634,957.7421,290.6583,952.7155,283.3,959.262" style="stroke:#181818;stroke-width:1;"/></g><!--reverse link C7 to UA--><g class="link" data-entity-1="C7" data-entity-2="UA" data-source-line="109" data-uid="lnk31" id="link_C7_UA"><path d="M270.1779,839.2309 C308.2979,845.6009 356.01,853.582 391.33,859.492" fill="none" id="C7-backto-UA" style="stroke:#181818;stroke-width:1;"/><polygon fill="#181818" points="264.26,838.242,272.4776,843.6706,269.1916,839.0661,273.7962,835.7801,264.26,838.242" style="stroke:#181818;stroke-width:1;"/></g><!--reverse link C15 to UA--><g class="link" data-entity-1="C15" data-entity-2="UA" data-source-line="110" data-uid="lnk33" id="link_C15_UA"><path d="M281.6423,774.7536 C302.1123,780.4236 319.14,786.552 338.7,796.602 C357.32,806.182 375.95,819.802 391.33,832.422" fill="none" id="C15-backto-UA" style="stroke:#181818;stroke-width:1;"/><polygon fill="#181818" points="275.86,773.152,283.4657,779.4093,280.6786,774.4867,285.6012,771.6996,275.86,773.152" style="stroke:#181818;stroke-width:1;"/></g><!--reverse link C10 to PDA--><g class="link" data-entity-1="C10" data-entity-2="PDA" data-source-line="112" data-uid="lnk35" id="link_C10_PDA"><path d="M288.207,681.1015 C307.867,676.1315 322.71,669.572 338.7,656.602 C379.84,623.212 404.27,565.712 416.87,526.942" fill="none" id="C10-backto-PDA" style="stroke:#181818;stroke-width:1;"/><polygon fill="#181818" points="282.39,682.572,292.0959,684.2442,287.2375,681.3465,290.1352,676.4882,282.39,682.572" style="stroke:#181818;stroke-width:1;"/></g><!--reverse link C11 to PDA--><g class="link" data-entity-1="C11" data-entity-2="PDA" data-source-line="113" data-uid="lnk37" id="link_C11_PDA"><path d="M285.3011,140.9354 C306.4911,145.5754 323.01,152.872 338.7,168.602 C414.42,244.512 427.09,379.202 428.42,446.292" fill="none" id="C11-backto-PDA" style="stroke:#181818;stroke-width:1;"/><polygon fill="#181818" points="279.44,139.652,287.3761,145.4845,284.3243,140.7215,289.0873,137.6697,279.44,139.652" style="stroke:#181818;stroke-width:1;"/></g><!--reverse link C12 to PDA--><g class="link" data-entity-1="C12" data-entity-2="PDA" data-source-line="114" data-uid="lnk39" id="link_C12_PDA"><path d="M274.5781,432.4486 C296.1881,438.7786 315.92,444.862 338.7,452.602 C350.3,456.552 362.65,461.052 374.34,465.462" fill="none" id="C12-backto-PDA" style="stroke:#181818;stroke-width:1;"/><polygon fill="#181818" points="268.82,430.762,276.3327,437.1307,273.6184,432.1675,278.5815,429.4533,268.82,430.762" style="stroke:#181818;stroke-width:1;"/></g><!--reverse link C8 to PDA--><g class="link" data-entity-1="C8" data-entity-2="PDA" data-source-line="115" data-uid="lnk41" id="link_C8_PDA"><path d="M294.57,486.602 C322.61,486.602 348.39,486.602 374.51,486.602" fill="none" id="C8-backto-PDA" style="stroke:#181818;stroke-width:1;"/><polygon fill="#181818" points="288.57,486.602,297.57,490.602,293.57,486.602,297.57,482.602,288.57,486.602" style="stroke:#181818;stroke-width:1;"/></g><!--reverse link C9 to PDA--><g class="link" data-entity-1="C9" data-entity-2="PDA" data-source-line="116" data-uid="lnk43" id="link_C9_PDA"><path d="M278.6216,612.8326 C300.2916,607.7526 318.92,601.112 338.7,588.602 C363.54,572.882 385.38,548.192 401.22,527.042" fill="none" id="C9-backto-PDA" style="stroke:#181818;stroke-width:1;"/><polygon fill="#181818" points="272.78,614.202,282.4554,616.0423,277.648,613.0608,280.6295,608.2534,272.78,614.202" style="stroke:#181818;stroke-width:1;"/></g><!--SRC=[lLPDJzj04BtxLwouj3tG4ZiVa4Cb4zeR5QLohiXo3BL8xDHsYgggKg6L0Yg7IeNIX0eL48eK5AdGLbt_c_qftPtrsXjYIle1KWvlrpDlPsVUx2HOTTocwPiDP5gXvpy9NzHjPAxPWTUmbI3vE6Slcwrw-D1pmqTcmqOJgwRhX1DAtLuEKUWXtrbv6gAQuzjMw7YkKZRePwJN6evRHcQ039rk1RRF5qfvmVUUtvkpcvB9mfokt49bWhi4OuBVmk-4u3s2pqYqIN2FH7HddnihIjEqLiqL6ysQWMCj6G73BnM4ReDN6no_akWr4FuW-8ZW3Y9udU1ZWWSCi6y0S9_WSxf_Xr7Fve24VTmWqHPyeTyZYE6OSJB2BhTL-O43GRG9vkkZXfhoAWrPjoolvOPBywPBbmtR3KNabAK3rpzajyQx17y7kdDWlFHUS8QU1dx0_5YyXpp1I0Iq0xHTaOEsuAJ7dNCIDKbXb_loROrphqFUjg0I6o910_2FmAaVbufTOnSEwt62F4k0OkXeSl8-ovj0ca0qV87or9BAGPWcK4kWdkxgqYvrDD1agycCSobKKwWb44vnxRKcBO6azF_Q1bJFeut0Dcah1DVG2-omKLKDAuBWKrQTk4n7GWsfpg1Undnkp8gFnoR9QbmNBJFu4x0vWlrt96gphdvGf_dsFTUn48dUWFOkz9yndyzasmLBIhWlNFP4Xso83haGRHliEp5j8JDB6K6EIrZC9FpdE4ki_KIViEAcM9Mm9k6yX0iIBagu9FNGTJNH3SwIYkdNbXRjPoqxuCt3Yc4qwvvPeq_e5yWebSz7u80Aiyfqn2HfGx8hiTP1Pqna1oJQ7Xqs4DCtNZ_kfycdZM6V7_ESH3DzI4WoJZvGUyvKkEBagncAGvdgYkbr32EHYd_lBYpexdlkaClidEoHN2dnctB27d3smR1xcSSqz-YBWhV7F6acUIQeN7uAanwa-1FCsmlJk0FBm_XIKvUvd_4iC0OMJiQSZnboMKKTIkZlIE2M9_16zs92TQWoVQOX5X-FE-MDhRKaqsV0qeOZJy6iZnuleefNisFRUAJ3Kr1H1T2IhKA2IW9G7u4q_cy0PZ6LSegB4Yv9c2g6lppnScfebHjQgV9gMbxCA3VmP6NEVVdHeWQNF5j_-MXL7NjD_8dSWT4iIsOGYoNYZ1HiKory5izOHmmF-BVBrD63eSLdPpNt1xGoAvEB9UHILPbQUF6hEG5edMBm2m00]--></g></svg>