<svg xmlns="http://www.w3.org/2000/svg" xmlns:xlink="http://www.w3.org/1999/xlink" contentStyleType="text/css" data-diagram-type="DESCRIPTION" height="569px" preserveAspectRatio="none" style="width:482px;height:569px;background:#FFFFFF;" version="1.1" viewBox="0 0 482 569" width="482px" zoomAndPan="magnify"><defs/><g><!--cluster Basic_Usage--><g class="cluster" data-entity="Basic_Usage" data-source-line="9" data-uid="ent0005" id="cluster_Basic_Usage"><path d="M168.66,6.602 L254.8357,6.602 A3.75,3.75 0 0 1 257.3357,9.102 L264.3357,31.6699 L366.65,31.6699 A2.5,2.5 0 0 1 369.15,34.1699 L369.15,232.102 A2.5,2.5 0 0 1 366.65,234.602 L168.66,234.602 A2.5,2.5 0 0 1 166.16,232.102 L166.16,9.102 A2.5,2.5 0 0 1 168.66,6.602" fill="none" style="stroke:#000000;stroke-width:1.5;"/><line style="stroke:#000000;stroke-width:1.5;" x1="166.16" x2="264.3357" y1="31.6699" y2="31.6699"/><text fill="#000000" font-family="'kanit'" font-size="14" font-weight="bold" lengthAdjust="spacing" textLength="85.1757" x="170.16" y="23.5679">Basic_Usage</text></g><!--cluster Account_Management--><g class="cluster" data-entity="Account_Management" data-source-line="15" data-uid="ent0009" id="cluster_Account_Management"><path d="M160.82,258.602 L318.5074,258.602 A3.75,3.75 0 0 1 321.0074,261.102 L328.0074,283.6699 L374.49,283.6699 A2.5,2.5 0 0 1 376.99,286.1699 L376.99,560.102 A2.5,2.5 0 0 1 374.49,562.602 L160.82,562.602 A2.5,2.5 0 0 1 158.32,560.102 L158.32,261.102 A2.5,2.5 0 0 1 160.82,258.602" fill="none" style="stroke:#000000;stroke-width:1.5;"/><line style="stroke:#000000;stroke-width:1.5;" x1="158.32" x2="328.0074" y1="283.6699" y2="283.6699"/><text fill="#000000" font-family="'kanit'" font-size="14" font-weight="bold" lengthAdjust="spacing" textLength="156.6874" x="162.32" y="275.5679">Account_Management</text></g><!--entity B1--><g class="entity" data-entity="B1" data-source-line="10" data-uid="ent0006" id="entity_B1"><ellipse cx="267.6534" cy="63.6007" fill="#F1F1F1" rx="85.4934" ry="19.4987" style="stroke:#181818;stroke-width:0.5;"/><text fill="#000000" font-family="'kanit'" font-size="14" lengthAdjust="spacing" textLength="134.6515" x="200.3277" y="69.6346">&#3621;&#3591;&#3607;&#3632;&#3648;&#3610;&#3637;&#3618;&#3609; &#3585;&#3619;&#3629;&#3585;&#3648;&#3629;&#3585;&#3626;&#3634;&#3619;</text></g><!--entity B2--><g class="entity" data-entity="B2" data-source-line="11" data-uid="ent0007" id="entity_B2"><ellipse cx="267.6525" cy="134.605" fill="#F1F1F1" rx="41.1525" ry="16.4831" style="stroke:#181818;stroke-width:0.5;"/><text fill="#000000" font-family="'kanit'" font-size="14" lengthAdjust="spacing" textLength="53.9558" x="240.6746" y="140.639">&#3648;&#3586;&#3657;&#3634;&#3626;&#3641;&#3656;&#3619;&#3632;&#3610;&#3610;</text></g><!--entity B3--><g class="entity" data-entity="B3" data-source-line="12" data-uid="ent0008" id="entity_B3"><ellipse cx="267.6451" cy="202.605" fill="#F1F1F1" rx="55.6651" ry="16.4831" style="stroke:#181818;stroke-width:0.5;"/><text fill="#000000" font-family="'kanit'" font-size="14" lengthAdjust="spacing" textLength="74.4797" x="230.4052" y="208.639">&#3629;&#3629;&#3585;&#3592;&#3634;&#3585;&#3619;&#3632;&#3610;&#3610;</text></g><!--entity A1--><g class="entity" data-entity="A1" data-source-line="16" data-uid="ent0010" id="entity_A1"><ellipse cx="267.6533" cy="314.5986" fill="#F1F1F1" rx="77.0333" ry="17.8067" style="stroke:#181818;stroke-width:0.5;"/><text fill="#000000" font-family="'kanit'" font-size="14" lengthAdjust="spacing" textLength="113.2876" x="211.0095" y="320.6326">&#3629;&#3609;&#3640;&#3617;&#3633;&#3605;&#3636;&#3585;&#3634;&#3619;&#3621;&#3591;&#3607;&#3632;&#3648;&#3610;&#3637;&#3618;&#3609;</text></g><!--entity A2--><g class="entity" data-entity="A2" data-source-line="17" data-uid="ent0011" id="entity_A2"><ellipse cx="267.6453" cy="525.599" fill="#F1F1F1" rx="93.3353" ry="21.0671" style="stroke:#181818;stroke-width:0.5;"/><text fill="#000000" font-family="'kanit'" font-size="14" lengthAdjust="spacing" textLength="153.4674" x="190.9116" y="531.633">&#3648;&#3614;&#3636;&#3656;&#3617; Admin &#3619;&#3632;&#3604;&#3633;&#3610;&#3619;&#3629;&#3591;&#3621;&#3591;&#3617;&#3634;</text></g><!--entity A3--><g class="entity" data-entity="A3" data-source-line="18" data-uid="ent0012" id="entity_A3"><ellipse cx="267.6476" cy="452.605" fill="#F1F1F1" rx="47.5476" ry="16.4831" style="stroke:#181818;stroke-width:0.5;"/><text fill="#000000" font-family="'kanit'" font-size="14" lengthAdjust="spacing" textLength="62.9998" x="236.1477" y="458.639">&#3621;&#3610; Admin</text></g><!--entity A4--><g class="entity" data-entity="A4" data-source-line="19" data-uid="ent0013" id="entity_A4"><ellipse cx="267.6474" cy="384.6055" fill="#F1F1F1" rx="72.0174" ry="16.8035" style="stroke:#181818;stroke-width:0.5;"/><text fill="#000000" font-family="'kanit'" font-size="14" lengthAdjust="spacing" textLength="99.8196" x="217.7376" y="390.6394">&#3649;&#3585;&#3657;&#3652;&#3586;&#3586;&#3657;&#3629;&#3617;&#3641;&#3621;&#3626;&#3656;&#3623;&#3609;&#3605;&#3633;&#3623;</text></g><!--entity UA--><g class="entity" data-entity="UA" data-source-line="4" data-uid="ent0002" id="entity_UA"><ellipse cx="60.1609" cy="213.072" fill="#F1F1F1" rx="16" ry="16" style="stroke:#181818;stroke-width:0.5;"/><path d="M60.1609,233.072 C64.1609,233.072 67.1609,233.072 71.1609,229.072 C79.1609,229.072 87.1609,237.072 87.1609,245.072 L87.1609,249.072 C87.1609,253.072 83.1609,257.072 79.1609,257.072 L41.1609,257.072 C37.1609,257.072 33.1609,253.072 33.1609,249.072 L33.1609,245.072 C33.1609,237.072 41.1609,229.072 49.1609,229.072 C53.1609,233.072 56.1609,233.072 60.1609,233.072" fill="#F1F1F1" style="stroke:#181818;stroke-width:0.5;"/><text fill="#000000" font-family="'kanit'" font-size="14" lengthAdjust="spacing" textLength="74.1017" x="23.11" y="272.5379">Unit Admin</text></g><!--entity U--><g class="entity" data-entity="U" data-source-line="5" data-uid="ent0003" id="entity_U"><ellipse cx="448.49" cy="145.072" fill="#F1F1F1" rx="16" ry="16" style="stroke:#181818;stroke-width:0.5;"/><path d="M448.49,165.072 C452.49,165.072 455.49,165.072 459.49,161.072 C467.49,161.072 475.49,169.072 475.49,177.072 L475.49,181.072 C475.49,185.072 471.49,189.072 467.49,189.072 L429.49,189.072 C425.49,189.072 421.49,185.072 421.49,181.072 L421.49,177.072 C421.49,169.072 429.49,161.072 437.49,161.072 C441.49,165.072 444.49,165.072 448.49,165.072" fill="#F1F1F1" style="stroke:#181818;stroke-width:0.5;"/><text fill="#000000" font-family="'kanit'" font-size="14" lengthAdjust="spacing" textLength="30.6179" x="433.1811" y="204.5379">User</text></g><!--entity PDA--><g class="entity" data-entity="PDA" data-source-line="6" data-uid="ent0004" id="entity_PDA"><ellipse cx="60.1588" cy="361.072" fill="#F1F1F1" rx="16" ry="16" style="stroke:#181818;stroke-width:0.5;"/><path d="M60.1588,381.072 C64.1588,381.072 67.1588,381.072 71.1588,377.072 C79.1588,377.072 87.1588,385.072 87.1588,393.072 L87.1588,397.072 C87.1588,401.072 83.1588,405.072 79.1588,405.072 L41.1588,405.072 C37.1588,405.072 33.1588,401.072 33.1588,397.072 L33.1588,393.072 C33.1588,385.072 41.1588,377.072 49.1588,377.072 C53.1588,381.072 56.1588,381.072 60.1588,381.072" fill="#F1F1F1" style="stroke:#181818;stroke-width:0.5;"/><text fill="#000000" font-family="'kanit'" font-size="14" lengthAdjust="spacing" textLength="108.3176" x="6" y="420.5379">Prov/Dep Admin</text></g><!--link UA to B2--><g class="link" data-entity-1="UA" data-entity-2="B2" data-source-line="23" data-uid="lnk14" id="link_UA_B2"><path d="M97.29,204.202 C112.75,191.672 131.55,178.082 150.32,168.602 C175.58,155.832 200.5626,148.4466 224.1326,143.0266" fill="none" id="UA-to-B2" style="stroke:#181818;stroke-width:1;"/><polygon fill="#181818" points="229.98,141.682,220.3125,139.8007,225.1072,142.8025,222.1053,147.5972,229.98,141.682" style="stroke:#181818;stroke-width:1;"/></g><!--link UA to B3--><g class="link" data-entity-1="UA" data-entity-2="B3" data-source-line="24" data-uid="lnk15" id="link_UA_B3"><path d="M97.42,230.602 C131.07,225.032 175.4606,217.6922 212.4806,211.5622" fill="none" id="UA-to-B3" style="stroke:#181818;stroke-width:1;"/><polygon fill="#181818" points="218.4,210.582,208.8675,208.106,213.4672,211.3988,210.1744,215.9985,218.4,210.582" style="stroke:#181818;stroke-width:1;"/></g><!--link UA to A1--><g class="link" data-entity-1="UA" data-entity-2="A1" data-source-line="25" data-uid="lnk16" id="link_UA_A1"><path d="M97.42,250.372 C133.49,264.052 183.0907,282.8823 220.5707,297.1123" fill="none" id="UA-to-A1" style="stroke:#181818;stroke-width:1;"/><polygon fill="#181818" points="226.18,299.242,219.1858,292.3079,221.5056,297.4672,216.3462,299.787,226.18,299.242" style="stroke:#181818;stroke-width:1;"/></g><!--link UA to A4--><g class="link" data-entity-1="UA" data-entity-2="A4" data-source-line="26" data-uid="lnk17" id="link_UA_A4"><path d="M84.28,277.122 C100.02,301.362 122.94,330.972 150.32,349.602 C167.67,361.412 183.3032,367.7736 203.0332,373.0436" fill="none" id="UA-to-A4" style="stroke:#181818;stroke-width:1;"/><polygon fill="#181818" points="208.83,374.592,201.1671,368.4049,203.9994,373.3017,199.1026,376.134,208.83,374.592" style="stroke:#181818;stroke-width:1;"/></g><!--link PDA to B2--><g class="link" data-entity-1="PDA" data-entity-2="B2" data-source-line="29" data-uid="lnk18" id="link_PDA_B2"><path d="M88.06,344.092 C97.28,329.002 107.08,311.442 114.32,294.602 C137.31,241.092 109.26,209.912 150.32,168.602 C170.27,148.532 195.4253,140.9746 220.4453,137.5546" fill="none" id="PDA-to-B2" style="stroke:#181818;stroke-width:1;"/><polygon fill="#181818" points="226.39,136.742,216.9312,133.9977,221.4361,137.4191,218.0146,141.924,226.39,136.742" style="stroke:#181818;stroke-width:1;"/></g><!--link PDA to B3--><g class="link" data-entity-1="PDA" data-entity-2="B3" data-source-line="30" data-uid="lnk19" id="link_PDA_B3"><path d="M91.44,344.282 C107.71,323.992 128.8,299.712 150.32,280.602 C178.86,255.242 210.9781,234.6936 235.5481,220.2436" fill="none" id="PDA-to-B3" style="stroke:#181818;stroke-width:1;"/><polygon fill="#181818" points="240.72,217.202,230.9344,218.3166,236.4101,219.7367,234.99,225.2124,240.72,217.202" style="stroke:#181818;stroke-width:1;"/></g><!--link PDA to A2--><g class="link" data-entity-1="PDA" data-entity-2="A2" data-source-line="31" data-uid="lnk20" id="link_PDA_A2"><path d="M88.47,425.092 C104.37,445.992 126.05,470.422 150.32,486.602 C165.65,496.822 178.2063,502.6995 195.6563,508.4995" fill="none" id="PDA-to-A2" style="stroke:#181818;stroke-width:1;"/><polygon fill="#181818" points="201.35,510.392,194.0711,503.7575,196.6052,508.8149,191.5478,511.3491,201.35,510.392" style="stroke:#181818;stroke-width:1;"/></g><!--link PDA to A3--><g class="link" data-entity-1="PDA" data-entity-2="A3" data-source-line="32" data-uid="lnk21" id="link_PDA_A3"><path d="M114.66,405.802 C126.35,410.202 138.7,414.692 150.32,418.602 C176.45,427.382 200.5211,434.4683 223.4411,440.8683" fill="none" id="PDA-to-A3" style="stroke:#181818;stroke-width:1;"/><polygon fill="#181818" points="229.22,442.482,221.6274,436.2089,224.4042,441.1373,219.4758,443.9141,229.22,442.482" style="stroke:#181818;stroke-width:1;"/></g><!--link PDA to A4--><g class="link" data-entity-1="PDA" data-entity-2="A4" data-source-line="33" data-uid="lnk22" id="link_PDA_A4"><path d="M114.61,384.602 C139.23,384.602 162.79,384.602 189.28,384.602" fill="none" id="PDA-to-A4" style="stroke:#181818;stroke-width:1;"/><polygon fill="#181818" points="195.28,384.602,186.28,380.602,190.28,384.602,186.28,388.602,195.28,384.602" style="stroke:#181818;stroke-width:1;"/></g><!--reverse link B1 to U--><g class="link" data-entity-1="B1" data-entity-2="U" data-source-line="35" data-uid="lnk24" id="link_B1_U"><path d="M336.8072,78.7283 C355.0672,84.3183 368.73,90.232 384.99,100.602 C398.24,109.052 410.5,121.002 420.59,132.522" fill="none" id="B1-backto-U" style="stroke:#181818;stroke-width:1;"/><polygon fill="#181818" points="331.07,76.972,338.5049,83.4313,335.851,78.4356,340.8467,75.7817,331.07,76.972" style="stroke:#181818;stroke-width:1;"/></g><!--reverse link B2 to U--><g class="link" data-entity-1="B2" data-entity-2="U" data-source-line="36" data-uid="lnk26" id="link_B2_U"><path d="M311.1644,142.6827 C345.4044,149.1927 389.83,157.642 420.52,163.472" fill="none" id="B2-backto-U" style="stroke:#181818;stroke-width:1;"/><polygon fill="#181818" points="305.27,141.562,313.3645,147.1726,310.182,142.4959,314.8587,139.3134,305.27,141.562" style="stroke:#181818;stroke-width:1;"/></g><!--reverse link B3 to U--><g class="link" data-entity-1="B3" data-entity-2="U" data-source-line="37" data-uid="lnk28" id="link_B3_U"><path d="M321.0642,192.6404 C354.5942,186.2604 392.78,179.002 420.63,173.712" fill="none" id="B3-backto-U" style="stroke:#181818;stroke-width:1;"/><polygon fill="#181818" points="315.17,193.762,324.7591,196.0092,320.0819,192.8274,323.2637,188.1502,315.17,193.762" style="stroke:#181818;stroke-width:1;"/></g><!--reverse link A4 to U--><g class="link" data-entity-1="A4" data-entity-2="U" data-source-line="38" data-uid="lnk30" id="link_A4_U"><path d="M338.0644,375.2348 C357.0044,370.1448 370.69,363.332 384.99,349.602 C423.83,312.292 438.54,249.722 444.11,208.802" fill="none" id="A4-backto-U" style="stroke:#181818;stroke-width:1;"/><polygon fill="#181818" points="332.27,376.792,341.9997,378.3191,337.0987,375.4943,339.9235,370.5932,332.27,376.792" style="stroke:#181818;stroke-width:1;"/></g><!--SRC=[lLPDJzj04BtxLwouj3tG4ZiVa4Cb4zeR5QLohiXo3BL8xDHsYgggKg6L0Yg7IeNIX0eL48eK5AdGLbt_c_qftPtrsXjYIle1KWvlrpDlPsVUx2HOTTocwPiDP5gXvpy9NzHjPAxPWTUmbI3vE6Slcwrw-D1pmqTcmqOJgwRhX1DAtLuEKUWXtrbv6gAQuzjMw7YkKZRePwJN6evRHcQ039rk1RRF5qfvmVUUtvkpcvB9mfokt49bWhi4OuBVmk-4u3s2pqYqIN2FH7HddnihIjEqLiqL6ysQWMCj6G73BnM4ReDN6no_akWr4FuW-8ZW3Y9udU1ZWWSCi6y0S9_WSxf_Xr7Fve24VTmWqHPyeTyZYE6OSJB2BhTL-O43GRG9vkkZXfhoAWrPjoolvOPBywPBbmtR3KNabAK3rpzajyQx17y7kdDWlFHUS8QU1dx0_5YyXpp1I0Iq0xHTaOEsuAJ7dNCIDKbXb_loROrphqFUjg0I6o910_2FmAaVbufTOnSEwt62F4k0OkXeSl8-ovj0ca0qV87or9BAGPWcK4kWdkxgqYvrDD1agycCSobKKwWb44vnxRKcBO6azF_Q1bJFeut0Dcah1DVG2-omKLKDAuBWKrQTk4n7GWsfpg1Undnkp8gFnoR9QbmNBJFu4x0vWlrt96gphdvGf_dsFTUn48dUWFOkz9yndyzasmLBIhWlNFP4Xso83haGRHliEp5j8JDB6K6EIrZC9FpdE4ki_KIViEAcM9Mm9k6yX0iIBagu9FNGTJNH3SwIYkdNbXRjPoqxuCt3Yc4qwvvPeq_e5yWebSz7u80Aiyfqn2HfGx8hiTP1Pqna1oJQ7Xqs4DCtNZ_kfycdZM6V7_ESH3DzI4WoJZvGUyvKkEBagncAGvdgYkbr32EHYd_lBYpexdlkaClidEoHN2dnctB27d3smR1xcSSqz-YBWhV7F6acUIQeN7uAanwa-1FCsmlJk0FBm_XIKvUvd_4iC0OMJiQSZnboMKKTIkZlIE2M9_16zs92TQWoVQOX5X-FE-MDhRKaqsV0qeOZJy6iZnuleefNisFRUAJ3Kr1H1T2IhKA2IW9G7u4q_cy0PZ6LSegB4Yv9c2g6lppnScfebHjQgV9gMbxCA3VmP6NEVVdHeWQNF5j_-MXL7NjD_8dSWT4iIsOGYoNYZ1HiKory5izOHmmF-BVBrD63eSLdPpNt1xGoAvEB9UHILPbQUF6hEG5edMBm2m00]--></g></svg>