<svg xmlns="http://www.w3.org/2000/svg" xmlns:xlink="http://www.w3.org/1999/xlink" contentStyleType="text/css" data-diagram-type="ACTIVITY" height="370px" preserveAspectRatio="none" style="width:227px;height:370px;background:#FFFFFF;" version="1.1" viewBox="0 0 227 370" width="227px" zoomAndPan="magnify"><defs/><g><ellipse cx="113.5507" cy="20" fill="#222222" rx="10" ry="10" style="stroke:#222222;stroke-width:1;"/><rect fill="#F1F1F1" height="36.3441" rx="12.5" ry="12.5" style="stroke:#181818;stroke-width:0.5;" width="111.1887" x="57.9563" y="50"/><text fill="#000000" font-family="'kanit'" font-size="12" lengthAdjust="spacing" textLength="91.1887" x="67.9563" y="72.8281">&#3652;&#3604;&#3657;&#3619;&#3633;&#3610; notification</text><polygon fill="#F1F1F1" points="89.9668,106.3441,137.1345,106.3441,149.1345,118.3441,137.1345,130.3441,89.9668,130.3441,77.9668,118.3441,89.9668,106.3441" style="stroke:#181818;stroke-width:0.5;"/><text fill="#000000" font-family="'kanit'" font-size="11" lengthAdjust="spacing" textLength="47.1677" x="89.9668" y="122.6121">&#3648;&#3586;&#3657;&#3634;&#3626;&#3641;&#3656;&#3619;&#3632;&#3610;&#3610;?</text><text fill="#000000" font-family="'kanit'" font-size="11" lengthAdjust="spacing" textLength="17.0829" x="60.884" y="115.1211">yes</text><text fill="#000000" font-family="'kanit'" font-size="11" lengthAdjust="spacing" textLength="13.4529" x="149.1345" y="115.1211">no</text><rect fill="#F1F1F1" height="36.3441" rx="12.5" ry="12.5" style="stroke:#181818;stroke-width:0.5;" width="82.9645" x="24.7652" y="140.3441"/><text fill="#000000" font-family="'kanit'" font-size="12" lengthAdjust="spacing" textLength="62.9645" x="34.7652" y="163.1722">&#3604;&#3635;&#3648;&#3609;&#3636;&#3609;&#3585;&#3634;&#3619;&#3605;&#3656;&#3629;</text><rect fill="#F1F1F1" height="36.3441" rx="12.5" ry="12.5" style="stroke:#181818;stroke-width:0.5;" width="66.2483" x="127.7297" y="140.3441"/><text fill="#000000" font-family="'kanit'" font-size="12" lengthAdjust="spacing" textLength="46.2483" x="137.7297" y="163.1722">&#3648;&#3586;&#3657;&#3634;&#3626;&#3641;&#3656;&#3619;&#3632;&#3610;&#3610;</text><polygon fill="#F1F1F1" points="113.5507,182.6882,125.5507,194.6882,113.5507,206.6882,101.5507,194.6882,113.5507,182.6882" style="stroke:#181818;stroke-width:0.5;"/><rect fill="#F1F1F1" height="36.3441" rx="12.5" ry="12.5" style="stroke:#181818;stroke-width:0.5;" width="134.6368" x="46.2323" y="226.6882"/><text fill="#000000" font-family="'kanit'" font-size="12" lengthAdjust="spacing" textLength="114.6368" x="56.2323" y="249.5163">&#3605;&#3619;&#3623;&#3592;&#3626;&#3629;&#3610;&#3585;&#3634;&#3619;&#3621;&#3591;&#3607;&#3632;&#3648;&#3610;&#3637;&#3618;&#3609;</text><rect fill="#F1F1F1" height="36.3441" rx="12.5" ry="12.5" style="stroke:#181818;stroke-width:0.5;" width="205.1013" x="11" y="283.0323"/><text fill="#000000" font-family="'kanit'" font-size="12" lengthAdjust="spacing" textLength="185.1013" x="21" y="305.8604">&#3585;&#3604;&#3618;&#3639;&#3609;&#3618;&#3633;&#3609;&#3629;&#3609;&#3640;&#3617;&#3633;&#3605;&#3636;&#3585;&#3634;&#3619;&#3621;&#3591;&#3607;&#3632;&#3648;&#3610;&#3637;&#3618;&#3609;&#3586;&#3629;&#3591;&#3626;&#3611;&#3585;.</text><ellipse cx="113.5507" cy="349.3765" fill="none" rx="10" ry="10" style="stroke:#222222;stroke-width:1.5;"/><line style="stroke:#222222;stroke-width:2.5;" x1="107.3635" x2="119.7378" y1="343.1893" y2="355.5636"/><line style="stroke:#222222;stroke-width:2.5;" x1="119.7378" x2="107.3635" y1="343.1893" y2="355.5636"/><line style="stroke:#181818;stroke-width:1;" x1="113.5507" x2="113.5507" y1="30" y2="50"/><polygon fill="#181818" points="109.5507,40,113.5507,50,117.5507,40,113.5507,44" style="stroke:#181818;stroke-width:1;"/><line style="stroke:#181818;stroke-width:1;" x1="77.9668" x2="66.2475" y1="118.3441" y2="118.3441"/><line style="stroke:#181818;stroke-width:1;" x1="66.2475" x2="66.2475" y1="118.3441" y2="140.3441"/><polygon fill="#181818" points="62.2475,130.3441,66.2475,140.3441,70.2475,130.3441,66.2475,134.3441" style="stroke:#181818;stroke-width:1;"/><line style="stroke:#181818;stroke-width:1;" x1="149.1345" x2="160.8539" y1="118.3441" y2="118.3441"/><line style="stroke:#181818;stroke-width:1;" x1="160.8539" x2="160.8539" y1="118.3441" y2="140.3441"/><polygon fill="#181818" points="156.8539,130.3441,160.8539,140.3441,164.8539,130.3441,160.8539,134.3441" style="stroke:#181818;stroke-width:1;"/><line style="stroke:#181818;stroke-width:1;" x1="66.2475" x2="66.2475" y1="176.6882" y2="194.6882"/><line style="stroke:#181818;stroke-width:1;" x1="66.2475" x2="101.5507" y1="194.6882" y2="194.6882"/><polygon fill="#181818" points="91.5507,190.6882,101.5507,194.6882,91.5507,198.6882,95.5507,194.6882" style="stroke:#181818;stroke-width:1;"/><line style="stroke:#181818;stroke-width:1;" x1="160.8539" x2="160.8539" y1="176.6882" y2="194.6882"/><line style="stroke:#181818;stroke-width:1;" x1="160.8539" x2="125.5507" y1="194.6882" y2="194.6882"/><polygon fill="#181818" points="135.5507,190.6882,125.5507,194.6882,135.5507,198.6882,131.5507,194.6882" style="stroke:#181818;stroke-width:1;"/><line style="stroke:#181818;stroke-width:1;" x1="113.5507" x2="113.5507" y1="86.3441" y2="106.3441"/><polygon fill="#181818" points="109.5507,96.3441,113.5507,106.3441,117.5507,96.3441,113.5507,100.3441" style="stroke:#181818;stroke-width:1;"/><line style="stroke:#181818;stroke-width:1;" x1="113.5507" x2="113.5507" y1="206.6882" y2="226.6882"/><polygon fill="#181818" points="109.5507,216.6882,113.5507,226.6882,117.5507,216.6882,113.5507,220.6882" style="stroke:#181818;stroke-width:1;"/><line style="stroke:#181818;stroke-width:1;" x1="113.5507" x2="113.5507" y1="263.0323" y2="283.0323"/><polygon fill="#181818" points="109.5507,273.0323,113.5507,283.0323,117.5507,273.0323,113.5507,277.0323" style="stroke:#181818;stroke-width:1;"/><line style="stroke:#181818;stroke-width:1;" x1="113.5507" x2="113.5507" y1="319.3765" y2="339.3765"/><polygon fill="#181818" points="109.5507,329.3765,113.5507,339.3765,117.5507,329.3765,113.5507,333.3765" style="stroke:#181818;stroke-width:1;"/><!--SRC=[XO-nQW9148RxVOh1wgx90tY5ZQJq7PPaZopgNl0sHReeWgPNWh6A8GG2GjI4pBxDF4fc_y9MM0PsThv_lcs7FjpRYHrJtzNsOHIlcn07TkoeCxJ1nuvfevr4qvKq5rv9UXP-5pu8lr9eeg_zZOs-2PNnDHMIdeHd63eAVmadIKi0tmhewPKKxroWuj6rfI7gvam-WTi8_w1EGIkq1hslZ1krZehGb0JcqXO5mgslLLeZSlzJU8d9FGRE2pw45y8l6SoP-lGhl5E9AhDJoEdr3rexV7k34Aqi_8RE6jwNCxDpPXSmsIfo1T5_]--></g></svg>